<svg width="16" height="16" viewBox="0 0 16 16" fill="none" xmlns="http://www.w3.org/2000/svg">
<g clip-path="url(#clip0_803_10026)">
<path d="M11.3359 1.99955C11.511 1.82445 11.7189 1.68556 11.9477 1.5908C12.1765 1.49604 12.4216 1.44727 12.6693 1.44727C12.9169 1.44727 13.1621 1.49604 13.3909 1.5908C13.6196 1.68556 13.8275 1.82445 14.0026 1.99955C14.1777 2.17465 14.3166 2.38252 14.4114 2.61129C14.5061 2.84006 14.5549 3.08526 14.5549 3.33288C14.5549 3.58051 14.5061 3.8257 14.4114 4.05448C14.3166 4.28325 14.1777 4.49112 14.0026 4.66622L5.0026 13.6662L1.33594 14.6662L2.33594 10.9996L11.3359 1.99955Z" stroke="#A7A7A7" stroke-width="1.24444" stroke-linecap="round" stroke-linejoin="round"/>
</g>
<defs>
<clipPath id="clip0_803_10026">
<rect width="16" height="16" fill="white"/>
</clipPath>
</defs>
</svg>
