<svg width="16" height="17" viewBox="0 0 16 17" fill="none" xmlns="http://www.w3.org/2000/svg">
<g id="edit-2">
<path id="Vector" d="M11.3359 2.49955C11.511 2.32445 11.7189 2.18556 11.9477 2.0908C12.1765 1.99604 12.4216 1.94727 12.6693 1.94727C12.9169 1.94727 13.1621 1.99604 13.3909 2.0908C13.6196 2.18556 13.8275 2.32445 14.0026 2.49955C14.1777 2.67465 14.3166 2.88252 14.4114 3.11129C14.5061 3.34006 14.5549 3.58526 14.5549 3.83288C14.5549 4.08051 14.5061 4.3257 14.4114 4.55448C14.3166 4.78325 14.1777 4.99112 14.0026 5.16622L5.0026 14.1662L1.33594 15.1662L2.33594 11.4996L11.3359 2.49955Z" stroke="#A7A7A7" stroke-width="1.24444" stroke-linecap="round" stroke-linejoin="round"/>
</g>
</svg>
