<svg width="40" height="40" viewBox="0 0 40 40" fill="none" xmlns="http://www.w3.org/2000/svg">
<g clip-path="url(#clip0_803_9988)">
<circle cx="20" cy="20" r="20" fill="#F8F8F8"/>
<circle cx="20" cy="20" r="19.5" stroke="black" stroke-opacity="0.09"/>
<path d="M19.3593 14.2711C19.7574 14.2282 20.1579 14.2068 20.5587 14.207C24.9636 14.207 28.492 16.7553 30.0031 20.3517C29.6374 21.2265 29.1431 22.0501 28.5345 22.799M15.3831 15.5404C13.4565 16.6333 11.9643 18.3266 11.1143 20.3517C12.6254 23.9481 16.1538 26.4963 20.5587 26.4963C22.3835 26.5053 24.1752 26.0434 25.7343 25.1621M18.5565 18.4907C18.2934 18.7353 18.0846 19.0256 17.9422 19.3451C17.7998 19.6647 17.7265 20.0071 17.7265 20.353C17.7265 20.6989 17.7998 21.0413 17.9422 21.3609C18.0846 21.6804 18.2934 21.9707 18.5565 22.2153C18.8196 22.4598 19.132 22.6538 19.4758 22.7862C19.8195 22.9185 20.188 22.9866 20.5601 22.9866C20.9322 22.9866 21.3007 22.9185 21.6445 22.7862C21.9883 22.6538 22.3006 22.4598 22.5638 22.2153" stroke="#4B4A4A" stroke-width="1.33333" stroke-linecap="round" stroke-linejoin="round"/>
<path d="M13.9404 13.332L29.0515 27.377" stroke="#4B4A4A" stroke-width="1.33333" stroke-linecap="round"/>
</g>
<defs>
<clipPath id="clip0_803_9988">
<rect width="40" height="40" fill="white"/>
</clipPath>
</defs>
</svg>
