<svg width="40" height="40" viewBox="0 0 40 40" fill="none" xmlns="http://www.w3.org/2000/svg">
<g clip-path="url(#clip0_803_10009)">
<circle cx="20" cy="19.9922" r="20" fill="#F8F8F8"/>
<circle cx="20" cy="19.9922" r="19.5" stroke="black" stroke-opacity="0.09"/>
<path d="M10 20.6758C11.3351 16.4241 15.3081 13.3398 20 13.3398C24.6929 13.3398 28.6649 16.4241 30 20.6758C28.6649 24.9276 24.6929 28.0118 20 28.0118C15.3081 28.0118 11.3351 24.9276 10 20.6758Z" stroke="#4B4A4A" stroke-width="1.33333" stroke-linecap="round" stroke-linejoin="round"/>
<path d="M23.1474 20.6792C23.1474 21.513 22.8161 22.3127 22.2265 22.9023C21.6369 23.4919 20.8372 23.8231 20.0034 23.8231C19.1695 23.8231 18.3698 23.4919 17.7802 22.9023C17.1906 22.3127 16.8594 21.513 16.8594 20.6792C16.8594 19.8453 17.1906 19.0456 17.7802 18.456C18.3698 17.8664 19.1695 17.5352 20.0034 17.5352C20.8372 17.5352 21.6369 17.8664 22.2265 18.456C22.8161 19.0456 23.1474 19.8453 23.1474 20.6792Z" stroke="#4B4A4A" stroke-width="1.33333" stroke-linecap="round" stroke-linejoin="round"/>
</g>
<defs>
<clipPath id="clip0_803_10009">
<rect width="40" height="40" fill="white"/>
</clipPath>
</defs>
</svg>
