<svg width="73" height="36" viewBox="0 0 73 36" fill="none" xmlns="http://www.w3.org/2000/svg">
<g id="Frame 2609495">
<g id="Group 2609434">
<g id="Spurt">
<path d="M8.16176 28.8274C6.59504 28.8357 5.28394 28.5069 4.22845 27.8411C3.19534 27.1751 2.40706 26.2504 1.86362 25.067C1.32018 23.8836 0.999552 22.5088 0.901732 20.9425L4.25418 20.0183C4.32642 20.9804 4.47682 21.9084 4.70538 22.8025C4.95631 23.6965 5.3519 24.433 5.89214 25.0121C6.43226 25.5688 7.18353 25.8446 8.14594 25.8395C9.13074 25.8343 9.86791 25.5618 10.3575 25.022C10.8693 24.4597 11.1225 23.6638 11.117 22.6343C11.1105 21.4033 10.8255 20.42 10.2621 19.6843C9.69849 18.9263 8.98944 18.1691 8.13491 17.4126L3.54772 13.4081C2.64831 12.6295 1.98355 11.7825 1.55344 10.8671C1.12321 9.92928 0.904482 8.77775 0.897254 7.41247C0.886709 5.4205 1.44927 3.87314 2.58493 2.7704C3.72058 1.66765 5.27321 1.11107 7.24279 1.10064C8.31711 1.09496 9.25791 1.23546 10.0652 1.52216C10.8947 1.78635 11.5796 2.20799 12.1199 2.78707C12.6825 3.36603 13.1228 4.10232 13.4409 4.99592C13.7813 5.86703 14.0105 6.8954 14.1287 8.08104L10.9104 8.97099C10.8385 8.07607 10.6999 7.25985 10.4945 6.52233C10.2891 5.76242 9.92777 5.16001 9.41063 4.7151C8.91574 4.24769 8.19828 4.01647 7.25826 4.02145C6.31823 4.02643 5.58099 4.28773 5.04656 4.80535C4.53439 5.30047 4.28091 6.04043 4.28612 7.02522C4.2905 7.85334 4.42841 8.53527 4.69983 9.07101C4.99364 9.60663 5.45536 10.1525 6.08501 10.7088L10.7058 14.7131C11.7401 15.6029 12.6522 16.6725 13.4422 17.9217C14.2321 19.1485 14.6315 20.6125 14.6405 22.3135C14.6476 23.6564 14.374 24.8217 13.8197 25.8094C13.2652 26.7748 12.497 27.5175 11.5149 28.0375C10.5552 28.5574 9.43751 28.8207 8.16176 28.8274Z" fill="#302E2E"/>
<path d="M18.3549 34.8503L18.2184 9.06659L21.8106 9.04758L21.8188 10.5919C22.2414 10.0973 22.754 9.66929 23.3564 9.30798C23.9588 8.94667 24.674 8.76383 25.5022 8.75945C26.5093 8.75411 27.3053 9.01849 27.8901 9.55257C28.4971 10.0641 28.9482 10.722 29.2435 11.5262C29.5386 12.3081 29.7331 13.1128 29.827 13.9404C29.9208 14.7457 29.9692 15.4393 29.9723 16.0212L29.9972 20.7214C30.0044 22.0866 29.877 23.3855 29.6149 24.6179C29.3527 25.8279 28.8656 26.8153 28.1534 27.5801C27.4635 28.3224 26.4806 28.6969 25.2049 28.7036C24.511 28.7073 23.8947 28.5427 23.3557 28.2098C22.8167 27.8546 22.3333 27.4542 21.9057 27.0089L21.9471 34.8313L18.3549 34.8503ZM24.4849 25.8873C25.1116 25.884 25.5581 25.6578 25.8243 25.2087C26.0904 24.7373 26.2549 24.1097 26.3179 23.326C26.3809 22.5423 26.4099 21.6804 26.4049 20.7404L26.38 16.0402C26.3758 15.2345 26.3271 14.4961 26.234 13.8252C26.1408 13.1318 25.9477 12.5845 25.6546 12.1831C25.3615 11.7818 24.9016 11.5828 24.2749 11.5861C23.8049 11.5886 23.3578 11.6917 22.9336 11.8954C22.5094 12.0991 22.1414 12.336 21.8295 12.6063L21.8952 25.0281C22.2322 25.2725 22.6139 25.4831 23.0401 25.6599C23.4661 25.8143 23.9478 25.8901 24.4849 25.8873Z" fill="#302E2E"/>
<path d="M37.0992 28.6407C36.3383 28.6447 35.7441 28.4464 35.3167 28.0458C34.8893 27.6452 34.5845 27.1432 34.4022 26.5398C34.2424 25.9363 34.1608 25.3213 34.1575 24.6946L34.0743 8.98266L37.6665 8.96364L37.744 23.6012C37.7477 24.2951 37.8513 24.8429 38.0549 25.2447C38.2583 25.6241 38.6734 25.8122 39.3001 25.8089C39.703 25.8067 40.1164 25.6926 40.5405 25.4666C40.9868 25.218 41.4105 24.9248 41.8116 24.5869L41.7288 8.94213L45.3211 8.92312L45.4238 28.328L41.8315 28.347L41.8214 26.4334C41.1979 27.041 40.4844 27.5596 39.6809 27.9891C38.8998 28.4185 38.0393 28.6357 37.0992 28.6407Z" fill="#302E2E"/>
<path d="M50.2055 28.3027L50.1028 8.8978L53.695 8.87879L53.7096 11.6317C54.4195 10.4417 55.1316 9.64337 55.8456 9.23671C56.5597 8.83005 57.2749 8.62482 57.9911 8.62103C58.0806 8.62056 58.1589 8.62014 58.2261 8.61979C58.3156 8.61931 58.4276 8.62991 58.562 8.65158L58.583 12.6131C58.3138 12.5027 58 12.4148 57.6415 12.3495C57.3053 12.2618 56.9582 12.2189 56.6 12.2208C56.0405 12.2237 55.5264 12.3607 55.0578 12.6318C54.6115 12.8804 54.1665 13.3751 53.7228 14.1161L53.7978 28.2837L50.2055 28.3027Z" fill="#302E2E"/>
<path d="M67.07 28.482C66.0629 28.4873 65.2449 28.3014 64.6162 27.9243C64.0099 27.547 63.5594 27.0122 63.2648 26.3199C62.9925 25.6275 62.8539 24.8113 62.8489 23.8712L62.7819 11.2144L60.734 11.2252L60.7214 8.84159L62.7693 8.83075L62.7393 3.157L66.3315 3.13798L66.3616 8.81174L69.4838 8.79521L69.4964 11.1789L66.3742 11.1954L66.4399 23.6172C66.444 24.3782 66.57 24.9259 66.818 25.2603C67.0658 25.5723 67.5367 25.7265 68.2305 25.7229C68.4095 25.7219 68.6109 25.7096 68.8346 25.6861C69.0807 25.6624 69.3156 25.6388 69.5393 25.6152L69.5533 28.2674C69.106 28.3369 68.6922 28.3839 68.3118 28.4083C67.9316 28.4551 67.5177 28.4796 67.07 28.482Z" fill="#302E2E"/>
</g>
<path id="Spurt (Stroke)" fill-rule="evenodd" clip-rule="evenodd" d="M3.82241 28.4887C2.6587 27.7385 1.77615 26.6974 1.17537 25.3891C0.585241 24.1041 0.247336 22.6335 0.144794 20.9917L0.105859 20.3683L4.96183 19.0295L5.03184 19.9619C5.10063 20.8779 5.24331 21.7585 5.45897 22.6044C5.68156 23.3931 6.02095 24.0103 6.45982 24.4828C6.8204 24.8515 7.34954 25.0758 8.15256 25.0716C9.00076 25.0671 9.49943 24.8362 9.79845 24.5065L9.79938 24.5055C10.1412 24.13 10.3634 23.5455 10.3586 22.6395C10.3527 21.5214 10.0947 20.7179 9.66216 20.1532L9.65546 20.1445C9.12972 19.4373 8.45955 18.7191 7.63775 17.9914C7.6371 17.9908 7.63645 17.9903 7.63579 17.9897L3.05501 13.9908C3.05458 13.9904 3.05415 13.99 3.05372 13.9897C2.08778 13.1532 1.351 12.2232 0.868016 11.1953L0.865032 11.189C0.377007 10.1252 0.14646 8.85868 0.138832 7.41773C0.127483 5.27381 0.737284 3.504 2.05982 2.2198C3.37083 0.946785 5.13219 0.343925 7.24941 0.332717C8.38612 0.3267 9.41479 0.474284 10.3214 0.794349C11.2559 1.09397 12.0522 1.57886 12.6875 2.25781C13.3343 2.92517 13.8248 3.75598 14.1723 4.72813C14.5416 5.67706 14.7819 6.77333 14.9048 8.00594L14.969 8.65081L10.2289 9.96156L10.1544 9.03376C10.0858 8.17965 9.95444 7.41276 9.76429 6.72981L9.76275 6.72427C9.59112 6.08948 9.30289 5.62899 8.91971 5.29934L8.90619 5.2877L8.89321 5.27544C8.5894 4.9885 8.09158 4.78742 7.27302 4.79176C6.47667 4.79597 5.94939 5.0132 5.59235 5.35901C5.28157 5.65945 5.06139 6.16502 5.06593 7.02234C5.06987 7.76687 5.19332 8.31764 5.39108 8.71358C5.62973 9.1445 6.02246 9.61861 6.60219 10.1311L11.2181 14.1313C11.2185 14.1316 11.2188 14.1319 11.2192 14.1323C12.3146 15.0749 13.2747 16.2025 14.1013 17.5092C14.9816 18.8777 15.4107 20.4892 15.4203 22.3106C15.428 23.7619 15.1318 25.0633 14.5011 26.1871L14.4974 26.1937C13.8714 27.2837 12.9978 28.1287 11.8887 28.7167C10.8011 29.3051 9.55602 29.5904 8.17652 29.5977C6.50047 29.6066 5.03644 29.2546 3.82876 28.4927L3.82241 28.4887ZM11.5256 28.0387C12.5077 27.5187 13.2759 26.776 13.8304 25.8106C14.3847 24.8229 14.6583 23.6576 14.6512 22.3147C14.6422 20.6137 14.2428 19.1497 13.4529 17.9229C12.6629 16.6737 11.7508 15.6041 10.7165 14.7143L6.09571 10.71C5.46606 10.1537 5.00433 9.60782 4.71052 9.0722C4.4391 8.53646 4.3012 7.85453 4.29681 7.02641C4.2916 6.04162 4.54508 5.30166 5.05725 4.80654C5.59169 4.28892 6.32892 4.02762 7.26895 4.02264C8.20898 4.01766 8.92643 4.24888 9.42132 4.71629C9.93847 5.1612 10.2998 5.76361 10.5052 6.52352C10.6497 7.04232 10.7611 7.60006 10.8395 8.19674C10.8726 8.4483 10.8998 8.70678 10.9211 8.97218L14.1394 8.08223C14.0212 6.89659 13.792 5.86822 13.4516 4.99711C13.1335 4.10351 12.6932 3.36722 12.1306 2.78826C11.5903 2.20918 10.9054 1.78754 10.0759 1.52335C9.26861 1.23665 8.32781 1.09615 7.25349 1.10183C5.2839 1.11226 3.73128 1.66885 2.59562 2.77159C1.45996 3.87433 0.897402 5.42169 0.907947 7.41366C0.915174 8.77894 1.1339 9.93047 1.56413 10.8682C1.99424 11.7836 2.659 12.6307 3.55841 13.4093L8.1456 17.4138C9.00013 18.1703 9.70918 18.9275 10.2728 19.6855C10.8362 20.4212 11.1212 21.4045 11.1277 22.6355C11.1332 23.665 10.88 24.4609 10.3682 25.0232C9.8786 25.563 9.14143 25.8355 8.15664 25.8407C7.19422 25.8458 6.44296 25.57 5.90284 25.0133C5.36259 24.4342 4.96701 23.6977 4.71607 22.8037C4.54962 22.1526 4.42463 21.4835 4.34109 20.7963C4.30991 20.5399 4.28451 20.2809 4.26488 20.0195L0.912425 20.9437C1.01024 22.51 1.33087 23.8848 1.87431 25.0682C2.41775 26.2516 3.20603 27.1762 4.23914 27.8422C5.29463 28.5081 6.60574 28.8369 8.17245 28.8286C9.44821 28.8219 10.5659 28.5586 11.5256 28.0387ZM17.6005 35.6246L17.4559 8.30274L22.5864 8.27558L22.5896 8.89404C22.7134 8.80948 22.8407 8.728 22.9715 8.64958C23.7119 8.20551 24.5676 7.9965 25.5088 7.99152C26.649 7.98548 27.6461 8.28571 28.4079 8.97534C29.1185 9.5777 29.6392 10.3459 29.975 11.2591C30.2917 12.0989 30.5008 12.9644 30.6018 13.854C30.6976 14.6768 30.7488 15.3998 30.7521 16.0183L30.777 20.7185C30.7845 22.1343 30.6524 23.4885 30.3779 24.7791L30.3773 24.782C30.0913 26.1018 29.5498 27.2217 28.7274 28.1049C27.8574 29.0409 26.6492 29.4664 25.2196 29.4739C24.3959 29.4783 23.6354 29.2812 22.9622 28.8654L22.9526 28.8594L22.9432 28.8532C22.8591 28.7978 22.7761 28.7413 22.6944 28.6837L22.731 35.5975L17.6005 35.6246ZM21.9164 27.0101C22.1565 27.2601 22.4141 27.4959 22.6893 27.7176C22.9043 27.8907 23.13 28.0552 23.3664 28.211C23.9053 28.5439 24.5217 28.7085 25.2156 28.7048C26.4913 28.6981 27.4742 28.3236 28.1641 27.5813C28.8763 26.8165 29.3634 25.8291 29.6256 24.6191C29.8877 23.3867 30.0151 22.0878 30.0079 20.7226L29.983 16.0224C29.9799 15.4405 29.9315 14.7469 29.8377 13.9416C29.7438 13.114 29.5493 12.3092 29.2542 11.5274C28.9589 10.7232 28.5078 10.0653 27.9008 9.55376C27.316 9.01968 26.52 8.75531 25.5129 8.76064C24.6847 8.76502 23.9695 8.94786 23.3671 9.30917C23.0907 9.47493 22.8332 9.65473 22.5947 9.84857C22.3133 10.0772 22.0582 10.3254 21.8295 10.5931L21.8213 9.04877L18.2291 9.06778L18.3655 34.8515L21.9578 34.8324L21.9164 27.0101ZM25.4829 13.932L25.4824 13.9288C25.3998 13.3136 25.2372 12.9022 25.0442 12.6379C24.9344 12.4877 24.7412 12.354 24.2897 12.3564C23.9337 12.3583 23.5989 12.4354 23.2772 12.5899C23.0279 12.7096 22.8066 12.8397 22.6113 12.9788L22.6728 24.6145C22.8727 24.7342 23.0909 24.8442 23.3287 24.9437C23.652 25.0585 24.0362 25.1218 24.4915 25.1194C24.9061 25.1172 25.0702 24.9879 25.1695 24.8241C25.3596 24.4837 25.5046 23.979 25.5619 23.2656C25.6229 22.5074 25.6514 21.6678 25.6465 20.7456L25.6216 16.0455C25.6175 15.2676 25.5705 14.5637 25.4829 13.932ZM23.0507 25.6611C22.6245 25.4843 22.2429 25.2737 21.9059 25.0293L21.8401 12.6074C22.1521 12.3372 22.5201 12.1002 22.9443 11.8966C23.3685 11.6929 23.8156 11.5898 24.2856 11.5873C24.9123 11.584 25.3722 11.783 25.6653 12.1843C25.9584 12.5857 26.1515 13.133 26.2447 13.8264C26.3378 14.4973 26.3865 15.2357 26.3907 16.0414L26.4156 20.7416C26.4206 21.6816 26.3916 22.5435 26.3286 23.3272C26.2656 24.1109 26.101 24.7385 25.835 25.2099C25.5687 25.659 25.1223 25.8852 24.4956 25.8885C23.9584 25.8913 23.4768 25.8155 23.0507 25.6611ZM33.6728 26.7508L33.6695 26.738C33.4928 26.0713 33.4027 25.3914 33.399 24.6998L33.3118 8.2188L38.4423 8.19164L38.5238 23.5984C38.5271 24.2241 38.6212 24.6357 38.7473 24.8896C38.7679 24.9254 38.8578 25.0433 39.3067 25.0409C39.5612 25.0396 39.8507 24.9685 40.1832 24.7923C40.4831 24.6249 40.7724 24.4347 41.0512 24.2213L40.9663 8.17828L46.0968 8.15112L46.2077 29.0943L41.0772 29.1214L41.0715 28.05C40.7492 28.2721 40.4113 28.4775 40.0581 28.6665C39.1596 29.1596 38.1734 29.4054 37.114 29.411C36.2171 29.4157 35.4113 29.1799 34.8014 28.6081C34.2679 28.108 33.8949 27.486 33.6767 26.7634L33.6728 26.7508ZM39.6916 27.9903C40.1837 27.7273 40.642 27.4309 41.0665 27.101C41.3352 26.8923 41.5904 26.6701 41.8321 26.4346L41.8422 28.3482L45.4345 28.3292L45.3318 8.92431L41.7395 8.94332L41.8223 24.5881C41.4212 24.926 40.9975 25.2192 40.5512 25.4677C40.1271 25.6938 39.7136 25.8079 39.3108 25.81C38.6841 25.8134 38.269 25.6253 38.0656 25.2459C37.862 24.8441 37.7584 24.2963 37.7547 23.6024L37.6772 8.96483L34.085 8.98385L34.1681 24.6958C34.1715 25.3225 34.2531 25.9375 34.4129 26.541C34.5952 27.1444 34.9 27.6464 35.3274 28.047C35.7548 28.4476 36.3489 28.6459 37.1099 28.6419C38.05 28.6369 38.9105 28.4197 39.6916 27.9903ZM49.4512 29.0771L49.3403 8.13395L54.4708 8.10679L54.4774 9.34919C54.7978 9.02875 55.13 8.7664 55.4757 8.56955C56.2874 8.10728 57.131 7.8577 57.9977 7.85311L58.2319 7.85187C58.3796 7.85109 58.538 7.86813 58.6951 7.89345L59.3383 7.99716L59.3689 13.7639L58.3016 13.3258C58.0927 13.2401 57.8326 13.1653 57.5145 13.1074L57.486 13.1022L57.458 13.0949C57.1885 13.0246 56.9081 12.9895 56.6148 12.9911C56.1844 12.9933 55.8024 13.097 55.4537 13.2987L55.4428 13.305C55.1942 13.4435 54.8736 13.7541 54.5037 14.3337L54.5816 29.0499L49.4512 29.0771ZM53.7335 14.1173C54.1772 13.3763 54.6222 12.8816 55.0685 12.633C55.5371 12.3619 56.0512 12.2249 56.6107 12.2219C56.9688 12.22 57.316 12.263 57.6522 12.3507C57.7104 12.3613 57.7674 12.3725 57.8233 12.3843C58.1114 12.4451 58.3682 12.5218 58.5936 12.6143L58.5727 8.65277C58.4383 8.6311 58.3263 8.6205 58.2368 8.62098L58.0018 8.62222C57.2856 8.62601 56.5704 8.83124 55.8563 9.2379C55.3979 9.499 54.9402 9.92155 54.4835 10.5056C54.2288 10.8312 53.9744 11.2069 53.7203 11.6329L53.7057 8.87998L50.1135 8.899L50.2162 28.3039L53.8085 28.2849L53.7335 14.1173ZM64.2205 28.5785C63.4726 28.113 62.9208 27.4518 62.5678 26.6223L62.5636 26.6125L62.5597 26.6025C62.2449 25.8019 62.0959 24.8875 62.0905 23.8765L62.0276 11.9888L59.9797 11.9996L59.9589 8.07774L62.0068 8.0669L61.9768 2.39315L67.1073 2.36599L67.1373 8.03974L70.2596 8.02321L70.2803 11.9451L67.1581 11.9616L67.2198 23.6143C67.2234 24.306 67.3401 24.6479 67.4366 24.7895C67.4739 24.8278 67.6503 24.958 68.2371 24.9549C68.3851 24.9541 68.5603 24.9439 68.7647 24.9224L68.7716 24.9217C69.0156 24.8982 69.2482 24.8748 69.4694 24.8515L70.3146 24.7625L70.3366 28.9269L69.6821 29.0286C69.2246 29.0997 68.795 29.1491 68.3941 29.1756C67.986 29.2248 67.5491 29.2499 67.0848 29.2523C65.9874 29.2581 65.0177 29.0568 64.2312 28.585L64.2205 28.5785ZM68.3225 28.4095C68.7029 28.3851 69.1167 28.3381 69.564 28.2686L69.55 25.6164C69.3263 25.64 69.0914 25.6636 68.8453 25.6873C68.8237 25.6895 68.8024 25.6917 68.7812 25.6938C68.583 25.7131 68.403 25.7232 68.2412 25.724C67.5473 25.7277 67.0765 25.5735 66.8286 25.2615C66.5807 24.9271 66.4547 24.3794 66.4506 23.6184L66.3849 11.1966L69.5071 11.18L69.4945 8.7964L66.3723 8.81293L66.3422 3.13917L62.75 3.15819L62.78 8.83194L60.7321 8.84278L60.7447 11.2264L62.7926 11.2156L62.8596 23.8724C62.8646 24.8124 63.0032 25.6287 63.2755 26.3211C63.5701 27.0134 64.0206 27.5482 64.6269 27.9254C65.2556 28.3026 66.0735 28.4885 67.0807 28.4832C67.5284 28.4808 67.9423 28.4563 68.3225 28.4095Z" fill="#302E2E"/>
</g>
</g>
</svg>
