<svg width="24" height="29" viewBox="0 0 24 29" fill="none" xmlns="http://www.w3.org/2000/svg">
<g id="Group 2609558">
<g id="Group 2609455">
<path id="Vector" d="M11.847 1.45914L11.8471 1.4591C11.9464 1.4298 12.0514 1.42045 12.1561 1.43146C12.2609 1.44247 12.3634 1.47363 12.4578 1.52312M11.847 1.45914L12.437 1.56493M11.847 1.45914C11.7479 1.4887 11.6564 1.53763 11.578 1.60324C11.4996 1.66885 11.4359 1.7498 11.3905 1.84148M11.847 1.45914L11.3905 1.84148M12.4578 1.52312C12.4578 1.52313 12.4578 1.52314 12.4578 1.52314L12.437 1.56493M12.4578 1.52312L12.4578 1.52311L12.437 1.56493M12.4578 1.52312L21.98 6.49278C22.1707 6.59232 22.3179 6.76072 22.3886 6.9615C22.4594 7.16238 22.4479 7.37932 22.3559 7.56434C21.9061 8.46845 21.1064 8.87674 20.4882 9.06126L20.4879 9.06134C20.2433 9.13284 20.0169 9.17414 19.8299 9.19777M12.437 1.56493L21.9592 6.53461C22.1396 6.62875 22.2784 6.78786 22.345 6.97692C22.4116 7.16597 22.4006 7.3695 22.3145 7.54272C21.8726 8.43099 21.0864 8.83349 20.4747 9.01608C20.222 9.08991 19.989 9.1312 19.7995 9.15403M19.8299 9.19777L19.8409 9.17564L19.7995 9.15403M19.8299 9.19777C19.8217 9.1988 19.8135 9.19981 19.8054 9.20078L19.7995 9.15403M19.8299 9.19777L16.9736 14.9398M19.7995 9.15403L16.9202 14.9421M16.9951 15.0602C17.1887 15.3702 17.4386 15.8083 17.6561 16.3184M16.9951 15.0602L11.3905 1.84156L11.4319 1.86309M16.9951 15.0602L16.9202 14.9421M16.9951 15.0602L16.9202 14.9421M17.6561 16.3184C18.0769 17.3015 18.4589 18.7382 17.8266 20.0092C17.7404 20.1824 17.5861 20.3111 17.3977 20.3671C17.2092 20.423 17.0019 20.4015 16.8216 20.3073L11.4217 17.4891L11.4009 17.531M17.6561 16.3184L17.6986 16.3M17.6561 16.3184L17.6986 16.3001M11.4009 17.531L11.3595 17.5094L8.45617 23.3458C8.27682 23.7063 7.17676 25.1462 6.80131 24.9502C6.42586 24.7543 6.9165 22.9964 7.09585 22.6358L9.99914 16.7994L9.95772 16.7778M11.4009 17.531L8.49758 23.3674C8.40515 23.5532 8.08209 24.0069 7.73656 24.3888C7.56353 24.58 7.38264 24.7557 7.21995 24.8715C7.13872 24.9294 7.05991 24.9739 6.98729 24.9972C6.91497 25.0205 6.84275 25.0245 6.7805 24.9921C6.71826 24.9596 6.67902 24.8973 6.65487 24.8237C6.63061 24.7498 6.61943 24.6584 6.61738 24.5571C6.61328 24.3541 6.64573 24.101 6.69504 23.8452C6.79352 23.3344 6.962 22.8 7.05443 22.6142L9.95772 16.7778M11.4009 17.531L16.8007 20.3492C16.9915 20.4487 17.2109 20.4716 17.4111 20.4123C17.6114 20.3528 17.776 20.2158 17.868 20.0308C18.51 18.7402 18.1207 17.2862 17.6986 16.3001M9.95772 16.7778L9.97853 16.736L4.57865 13.9178C4.39826 13.8236 4.25949 13.6645 4.19287 13.4755C4.12624 13.2864 4.13722 13.0829 4.22339 12.9096C4.85565 11.6386 6.2149 11.1107 7.23738 10.8809C7.73526 10.7711 8.24414 10.7047 8.75828 10.6824M9.95772 16.7778L4.55785 13.9596C4.36713 13.8601 4.22001 13.6917 4.14926 13.4909C4.07846 13.29 4.08995 13.0731 4.18198 12.888C4.82397 11.5975 6.20133 11.0654 7.22688 10.8349L7.22706 10.8348C7.71886 10.7264 8.2213 10.6601 8.72891 10.6366M8.75828 10.6824L11.6375 4.89431M8.75828 10.6824L8.75577 10.6354C8.74682 10.6358 8.73786 10.6362 8.72891 10.6366M8.75828 10.6824L8.71686 10.6608L8.72891 10.6366M11.6375 4.89431C11.524 4.68814 11.4277 4.47386 11.3496 4.25371C11.1343 3.63947 10.9907 2.75006 11.4319 1.86309M11.6375 4.89431L11.5961 4.87269L11.5851 4.89488M11.6375 4.89431L11.5971 4.91693C11.5931 4.90959 11.5891 4.90224 11.5851 4.89488M11.4319 1.86309L11.3905 1.84148M11.4319 1.86309L11.3905 1.84148M11.5851 4.89488L8.72891 10.6366M11.5851 4.89488L17.6986 16.3001M17.6986 16.3001L17.6986 16.3M17.6986 16.3C17.4798 15.7871 17.2287 15.3467 17.0342 15.0353L17.034 15.035L16.9736 14.9398M17.6986 16.3L16.9202 14.9421M16.9202 14.9421L16.9591 14.917L16.9736 14.9398M16.9202 14.9421L16.9616 14.9638L16.9736 14.9398M16.6064 18.497L6.13505 13.032C6.53387 12.7187 7.07267 12.5088 7.65494 12.3783C8.14248 12.2712 8.64258 12.2144 9.14735 12.2089L16.6064 18.497ZM16.6064 18.497C16.6194 17.9823 16.4685 17.4125 16.2292 16.8533C16.0152 16.3578 15.7481 15.8841 15.4326 15.4405L15.4271 15.4332L15.4243 15.4317L15.4179 15.4233C15.3268 15.3031 15.27 15.1617 15.2541 15.0149C15.2382 14.8679 15.264 14.7214 15.3288 14.5919M16.6064 18.497L9.14743 12.2089L9.2403 12.2081L9.2403 12.2081L9.24125 12.208L9.25014 12.2078L9.2515 12.2085L9.26198 12.2088C9.41013 12.2137 9.55495 12.1778 9.68014 12.1049C9.80536 12.032 9.90589 11.9248 9.97027 11.7954L13.2193 5.26403C13.2834 5.13516 13.3089 4.98954 13.2934 4.84348C13.2778 4.69744 13.2217 4.55679 13.1317 4.43699L13.1315 4.4368L13.1302 4.43511C12.9993 4.24167 12.8938 4.03351 12.8164 3.81596L12.8163 3.81582C12.769 3.68428 12.734 3.54709 12.7142 3.4077L20.3415 7.38841C20.22 7.45434 20.0897 7.50436 19.9582 7.54336C19.7516 7.60405 19.5366 7.63863 19.3184 7.64626C19.1649 7.63533 19.0134 7.66814 18.8821 7.7412C18.75 7.81467 18.6442 7.92564 18.5776 8.06079M18.5776 8.06079L18.5777 8.06062L18.6191 8.08224L18.5776 8.06079ZM18.5776 8.06079L15.3288 14.5919M15.3288 14.5919L15.3287 14.592L15.3701 14.6136L15.3288 14.5919Z" fill="#FE7448" stroke="#FE7448" stroke-width="0.0934282"/>
<path id="Vector 50" d="M21.4736 7.26843L12.6971 2.81445H12.1808V4.794L9.08324 11.2275L5.5 13L17 19L16.3109 14.6917L18.8923 8.75309L21.4736 7.26843Z" fill="#FE7448" stroke="#FE7448" stroke-width="0.934282"/>
</g>
</g>
</svg>
