<svg xmlns="http://www.w3.org/2000/svg" width="20" height="25" viewBox="0 0 20 25" fill="none">
  <path d="M9.73489 1.78422L9.73498 1.78419C9.81653 1.76012 9.90281 1.75243 9.98888 1.76148C10.0749 1.77053 10.1592 1.79613 10.2368 1.8368M9.73489 1.78422L10.2196 1.87115M9.73489 1.78422C9.6534 1.80851 9.57827 1.84872 9.51385 1.90263C9.44944 1.95654 9.39706 2.02306 9.35975 2.0984M9.73489 1.78422L9.35975 2.0984M10.2368 1.8368C10.2368 1.83681 10.2368 1.83681 10.2368 1.83682L10.2196 1.87115M10.2368 1.8368L10.2367 1.83679L10.2196 1.87115M10.2368 1.8368L18.0612 5.9204C18.2179 6.00219 18.3388 6.14056 18.397 6.30554C18.4551 6.47061 18.4457 6.64887 18.3701 6.8009C18.0005 7.54381 17.3434 7.87931 16.8354 8.03093L16.8352 8.03099C16.6341 8.08975 16.4481 8.12368 16.2944 8.1431M10.2196 1.87115L18.0441 5.95476C18.1924 6.03212 18.3064 6.16286 18.3611 6.31821C18.4159 6.47356 18.4069 6.6408 18.3361 6.78314C17.973 7.51303 17.3269 7.84377 16.8243 7.9938C16.6167 8.05447 16.4252 8.0884 16.2694 8.10716M16.2944 8.1431L16.3035 8.12492L16.2694 8.10716M16.2944 8.1431L13.9474 12.8613M16.2944 8.1431C16.2877 8.14395 16.281 8.14477 16.2744 8.14557L16.2694 8.10716M16.2694 8.10716L13.9035 12.8633M14.5082 13.9941C14.3295 13.575 14.1242 13.2151 13.9651 12.9603L13.9035 12.8633M14.5082 13.9941C14.854 14.802 15.1679 15.9825 14.6483 17.0269C14.5775 17.1692 14.4507 17.275 14.2959 17.321C14.141 17.3669 13.9707 17.3493 13.8225 17.2719L9.38537 14.9562L9.36828 14.9905M14.5082 13.9941L14.5431 13.9791C14.5431 13.9791 14.5431 13.9791 14.5431 13.9791M14.5082 13.9941L14.5431 13.9791M9.36828 14.9905L9.33425 14.9728L6.9486 19.7686C6.80123 20.0649 5.8973 21.248 5.58879 21.087C5.28028 20.926 5.68345 19.4815 5.83082 19.1852L8.21646 14.3894L8.18244 14.3716M9.36828 14.9905L6.98263 19.7864C6.90668 19.939 6.64122 20.3119 6.35729 20.6256C6.21512 20.7827 6.06647 20.9271 5.93279 21.0223C5.86605 21.0699 5.80129 21.1064 5.74161 21.1256C5.68219 21.1447 5.62284 21.148 5.5717 21.1213C5.52055 21.0947 5.48831 21.0435 5.46846 20.983C5.44853 20.9223 5.43934 20.8472 5.43766 20.7639C5.43429 20.5972 5.46095 20.3891 5.50147 20.179C5.5824 19.7593 5.72084 19.3201 5.79679 19.1675L8.18244 14.3716M9.36828 14.9905L13.8054 17.3063C13.9621 17.3881 14.1424 17.4069 14.3069 17.3581C14.4715 17.3093 14.6067 17.1967 14.6824 17.0447C15.2099 15.9842 14.89 14.7893 14.5431 13.9791M8.18244 14.3716L8.19953 14.3373L3.76243 12.0215C3.6142 11.9442 3.50017 11.8134 3.44542 11.6581C3.39068 11.5027 3.3997 11.3355 3.47051 11.1932C3.99003 10.1488 5.10694 9.71495 5.94712 9.5261C6.35623 9.4359 6.77437 9.38134 7.19684 9.36305L9.56275 4.60692C9.46946 4.43751 9.39033 4.26144 9.32617 4.08054C9.14921 3.57581 9.03123 2.84498 9.39378 2.11616M8.18244 14.3716L3.74533 12.0559C3.58862 11.9741 3.46773 11.8357 3.40959 11.6708C3.35142 11.5057 3.36085 11.3274 3.43648 11.1754C3.964 10.1149 5.09579 9.67775 5.93848 9.48832L5.93863 9.48829C6.34275 9.39919 6.7556 9.3447 7.17271 9.32539L9.51965 4.60739C9.42964 4.4417 9.35295 4.26977 9.29035 4.09328L9.29031 4.09315C9.11147 3.58306 8.99073 2.84023 9.35975 2.0984M9.39378 2.11616L9.35972 2.09846C9.35973 2.09844 9.35974 2.09842 9.35975 2.0984M9.39378 2.11616L9.35975 2.0984M9.39378 2.11616L9.35975 2.0984M14.5431 13.9791C14.3634 13.5576 14.157 13.1957 13.9972 12.9399L13.997 12.9396L13.9474 12.8613M13.9474 12.8613L13.9355 12.8426L13.9035 12.8633M13.9474 12.8613L13.9376 12.881L13.9035 12.8633M16.4109 6.82083L16.3998 6.78368C16.5079 6.75163 16.615 6.71052 16.7148 6.65634L10.4474 3.38537C10.4637 3.4999 10.4925 3.61264 10.5313 3.72072L10.5314 3.72083C10.595 3.8996 10.6817 4.07064 10.7893 4.22959L10.7903 4.23098L10.7905 4.23114C10.8645 4.32958 10.9105 4.44516 10.9233 4.56515C10.9362 4.68517 10.9151 4.80483 10.8625 4.91073L8.19275 10.2776C8.13985 10.3839 8.05724 10.472 7.95435 10.5319C7.85148 10.5918 7.73248 10.6213 7.61074 10.6173L7.60213 10.617L7.60101 10.6164L7.5937 10.6167L7.59293 10.6167L7.59293 10.6167L7.51661 10.6174L16.756 6.6778C16.6467 6.73992 16.5289 6.78582 16.4109 6.82083ZM16.4109 6.82083C16.2374 6.87178 16.057 6.90071 15.8739 6.90695M16.4109 6.82083L16.3999 6.78365C16.2301 6.83353 16.0535 6.86194 15.8741 6.86821M15.8739 6.90695L15.8762 6.86836C15.8755 6.86831 15.8748 6.86826 15.8741 6.86821M15.8739 6.90695C15.7541 6.89805 15.6361 6.9235 15.5342 6.98021C15.4323 7.03691 15.3508 7.12245 15.2996 7.22646M15.8739 6.90695L15.2996 7.22646M15.8741 6.86821C15.748 6.85923 15.6235 6.8862 15.5156 6.94623C15.4072 7.00657 15.3202 7.09771 15.2655 7.2087M15.8741 6.86821L15.2655 7.2087M15.2655 7.2087C15.2655 7.20874 15.2655 7.20879 15.2655 7.20884L15.2655 7.2087ZM12.6299 12.5933L15.2996 7.22646M12.6299 12.5933L12.5959 12.5755M12.6299 12.5933C12.58 12.693 12.5601 12.8059 12.5723 12.9192C12.5846 13.0326 12.6285 13.142 12.6992 13.2352L12.5959 12.5755M12.6299 12.5933L12.5958 12.5756L12.5959 12.5755M15.2996 7.22646L12.6744 13.2656L12.6691 13.2586C12.5942 13.1599 12.5475 13.0437 12.5345 12.923C12.5215 12.8023 12.5426 12.6819 12.5959 12.5755M13.6457 15.7843L5.04132 11.2937C5.36904 11.0362 5.81178 10.8638 6.29024 10.7566C6.69085 10.6685 7.10178 10.6219 7.51655 10.6174L13.6457 15.7843ZM16.7546 6.63381L10.4415 3.339L16.7546 6.63381ZM10.4062 3.36384C10.422 3.49038 10.4529 3.61484 10.4956 3.73362L10.4062 3.36384Z" fill="#FE7448" stroke="#FE7448" stroke-width="0.0767705"/>
  <path d="M17.6437 6.5561L10.432 2.89624H10.0077V4.52284L7.46244 9.8093L4.51807 11.2658L13.9677 16.196L13.4015 12.6559L15.5226 7.77605L17.6437 6.5561Z" fill="#FE7448" stroke="#FE7448" stroke-width="0.767705"/>
</svg>