<svg width="173" height="87" viewBox="0 0 173 87" fill="none" xmlns="http://www.w3.org/2000/svg">
<path d="M19.7314 70.1508C15.8751 70.1508 12.6524 69.3245 10.0631 67.6718C7.52896 66.0191 5.6008 63.7328 4.27863 60.8131C2.95647 57.8933 2.1852 54.5052 1.96484 50.6489L10.2284 48.4177C10.3936 50.7866 10.7517 53.0729 11.3026 55.2765C11.9086 57.4801 12.8727 59.2981 14.1949 60.7304C15.517 62.1077 17.3626 62.7963 19.7314 62.7963C22.1554 62.7963 23.9734 62.1352 25.1854 60.8131C26.4525 59.4358 27.086 57.4801 27.086 54.9459C27.086 51.916 26.3974 49.492 25.0201 47.674C23.6429 45.801 21.9075 43.9279 19.8141 42.0548L8.57567 32.1386C6.37206 30.2104 4.7469 28.117 3.70019 25.8583C2.65347 23.5445 2.13011 20.7074 2.13011 17.3469C2.13011 12.4438 3.53492 8.6426 6.34452 5.94318C9.15412 3.24375 12.9829 1.89404 17.8308 1.89404C20.4752 1.89404 22.789 2.25213 24.7722 2.9683C26.8105 3.62938 28.4908 4.6761 29.813 6.10845C31.1902 7.54079 32.2645 9.35877 33.0357 11.5624C33.8621 13.7109 34.413 16.245 34.6884 19.1648L26.7554 21.3134C26.5902 19.1097 26.2596 17.0989 25.7638 15.281C25.268 13.4079 24.3866 11.9205 23.1195 10.8187C21.9075 9.66177 20.1446 9.08332 17.8308 9.08332C15.517 9.08332 13.6991 9.71686 12.3769 10.9839C11.1098 12.1959 10.4763 14.0139 10.4763 16.4379C10.4763 18.4762 10.8068 20.1565 11.4679 21.4786C12.1841 22.8008 13.3134 24.1505 14.856 25.5278L26.177 35.444C28.7112 37.6476 30.9423 40.2919 32.8705 43.377C34.7986 46.407 35.7627 50.0154 35.7627 54.2022C35.7627 57.5076 35.0741 60.3723 33.6968 62.7963C32.3196 65.1652 30.419 66.9832 27.995 68.2502C25.6261 69.5173 22.8716 70.1508 19.7314 70.1508Z" fill="#302E2E"/>
<path d="M44.7416 85.1078V21.6439H53.5835V25.4451C54.6302 24.2331 55.8973 23.1864 57.3848 22.305C58.8722 21.4235 60.6351 20.9828 62.6734 20.9828C65.1525 20.9828 67.1082 21.6439 68.5405 22.9661C70.028 24.2331 71.1298 25.8583 71.8459 27.8415C72.5621 29.7697 73.0304 31.753 73.2507 33.7913C73.4711 35.7745 73.5813 37.4823 73.5813 38.9147V50.4836C73.5813 53.8441 73.2507 57.0394 72.5897 60.0693C71.9286 63.0442 70.7166 65.4682 68.9537 67.3412C67.2459 69.1592 64.8219 70.0682 61.6818 70.0682C59.974 70.0682 58.459 69.655 57.1369 68.8287C55.8147 67.9472 54.6302 66.9556 53.5835 65.8538V85.1078H44.7416ZM59.9464 63.1268C61.489 63.1268 62.5908 62.5759 63.2519 61.4741C63.9129 60.3172 64.3261 58.7747 64.4914 56.8466C64.6567 54.9184 64.7393 52.7974 64.7393 50.4836V38.9147C64.7393 36.9314 64.6291 35.1135 64.4088 33.4607C64.1884 31.7529 63.7201 30.4032 63.004 29.4116C62.2878 28.42 61.1584 27.9242 59.6159 27.9242C58.459 27.9242 57.3572 28.1721 56.3105 28.6679C55.2638 29.1637 54.3548 29.7422 53.5835 30.4032V60.9783C54.4099 61.5843 55.3464 62.1077 56.3931 62.5484C57.4398 62.934 58.6243 63.1268 59.9464 63.1268Z" fill="#302E2E"/>
<path d="M90.9586 70.0682C89.0855 70.0682 87.6256 69.5724 86.5789 68.5808C85.5322 67.5891 84.7885 66.3496 84.3478 64.8622C83.9621 63.3747 83.7693 61.8598 83.7693 60.3172V21.6439H92.6113V57.6729C92.6113 59.3807 92.8592 60.7304 93.355 61.722C93.8508 62.6586 94.87 63.1268 96.4125 63.1268C97.4042 63.1268 98.4233 62.8514 99.47 62.3005C100.572 61.6945 101.619 60.9783 102.61 60.152V21.6439H111.452V69.4071H102.61V64.6969C101.068 66.1844 99.3048 67.4514 97.3215 68.4981C95.3934 69.5448 93.2724 70.0682 90.9586 70.0682Z" fill="#302E2E"/>
<path d="M123.222 69.4071V21.6439H132.064V28.42C133.827 25.5002 135.59 23.5445 137.353 22.5529C139.115 21.5613 140.878 21.0654 142.641 21.0654C142.862 21.0654 143.054 21.0654 143.22 21.0654C143.44 21.0654 143.715 21.093 144.046 21.1481V30.8991C143.385 30.6236 142.614 30.4032 141.732 30.238C140.906 30.0176 140.052 29.9074 139.171 29.9074C137.793 29.9074 136.526 30.238 135.369 30.8991C134.267 31.505 133.166 32.717 132.064 34.535V69.4071H123.222Z" fill="#302E2E"/>
<path d="M164.729 70.0682C162.25 70.0682 160.239 69.5999 158.696 68.6634C157.209 67.7269 156.107 66.4047 155.391 64.6969C154.73 62.9891 154.399 60.9783 154.399 58.6645V27.511H149.359V21.6439H154.399V7.67852H163.241V21.6439H170.926V27.511H163.241V58.0861C163.241 59.9592 163.544 61.3089 164.15 62.1352C164.756 62.9065 165.913 63.2921 167.621 63.2921C168.062 63.2921 168.557 63.2646 169.108 63.2095C169.714 63.1544 170.293 63.0993 170.844 63.0442V69.5724C169.742 69.7377 168.723 69.8479 167.786 69.9029C166.85 70.0131 165.831 70.0682 164.729 70.0682Z" fill="#302E2E"/>
<path fill-rule="evenodd" clip-rule="evenodd" d="M9.04185 69.2565C6.18735 67.3949 4.02867 64.8209 2.56699 61.593C1.13124 58.4224 0.318706 54.7984 0.0877089 50.756L0 49.2211L11.9696 45.9893L12.1298 48.2851C12.2871 50.5406 12.6269 52.7098 13.1467 54.7946C13.6842 56.7388 14.5116 58.2624 15.5856 59.4311C16.4683 60.3433 17.7678 60.9023 19.7443 60.9023C21.8321 60.9023 23.0625 60.3405 23.8028 59.5329L23.8051 59.5304C24.6513 58.6106 25.2058 57.1749 25.2058 54.945C25.2058 52.1928 24.5813 50.2118 23.524 48.8163L23.5077 48.7947C22.2228 47.0473 20.5827 45.2708 18.5694 43.469C18.5679 43.4676 18.5663 43.4661 18.5647 43.4647L7.34194 33.5623C7.34089 33.5614 7.33984 33.5605 7.33879 33.5596C4.97218 31.4882 3.17082 29.1897 1.99544 26.6533L1.98818 26.6377C0.800847 24.013 0.249896 20.8927 0.249896 17.3459C0.249896 12.0689 1.77388 7.72073 5.04581 4.57711C8.28922 1.46089 12.6324 0 17.8437 0C20.6416 0 23.1716 0.376656 25.3988 1.17626C27.6952 1.9259 29.6487 3.12975 31.2037 4.80916C32.7869 6.46016 33.9832 8.51145 34.8259 10.9088C35.7225 13.2492 36.2997 15.9506 36.5861 18.9861L36.7359 20.5742L25.0519 23.7386L24.8805 21.454C24.7228 19.3509 24.4094 17.4616 23.9503 15.7781L23.9466 15.7645C23.5324 14.1998 22.829 13.0626 21.8902 12.2463L21.857 12.2174L21.8252 12.1871C21.0812 11.4769 19.8585 10.9755 17.8437 10.9755C15.8836 10.9755 14.5829 11.5033 13.6996 12.3498C12.9308 13.0852 12.3823 14.3267 12.3823 16.4369C12.3823 18.2695 12.6789 19.6267 13.1605 20.6039C13.7423 21.6676 14.7028 22.8397 16.123 24.1087L27.4321 34.0145C27.433 34.0153 27.434 34.0161 27.4349 34.017C30.1188 36.3513 32.4671 39.1394 34.4847 42.3664C36.6335 45.7462 37.6687 49.7182 37.6687 54.2013C37.6687 57.7735 36.9226 60.9728 35.3557 63.7306L35.3464 63.7469C33.7914 66.4215 31.6302 68.4901 28.8927 69.9229C26.208 71.357 23.1398 72.043 19.7443 72.043C15.6189 72.043 12.02 71.1576 9.05744 69.2666L9.04185 69.2565ZM28.0079 68.2493C30.4318 66.9822 32.3324 65.1642 33.7097 62.7954C35.087 60.3714 35.7756 57.5067 35.7756 54.2013C35.7756 50.0144 34.8115 46.406 32.8833 43.3761C30.9552 40.291 28.724 37.6467 26.1899 35.4431L14.8688 25.5268C13.3263 24.1496 12.197 22.7998 11.4808 21.4777C10.8197 20.1555 10.4892 18.4753 10.4892 16.4369C10.4892 14.013 11.1227 12.195 12.3898 10.983C13.7119 9.71592 15.5299 9.08238 17.8437 9.08238C20.1575 9.08238 21.9204 9.66082 23.1324 10.8177C24.3995 11.9195 25.2809 13.407 25.7767 15.28C26.1255 16.5589 26.3925 17.9331 26.5777 19.4027C26.6558 20.0223 26.7193 20.6589 26.7683 21.3124L34.7013 19.1639C34.4259 16.2441 33.875 13.71 33.0486 11.5614C32.2774 9.35783 31.2031 7.53985 29.8258 6.1075C28.5037 4.67516 26.8234 3.62844 24.7851 2.96736C22.8018 2.25119 20.488 1.8931 17.8437 1.8931C12.9958 1.8931 9.167 3.24281 6.3574 5.94223C3.5478 8.64166 2.143 12.4429 2.143 17.3459C2.143 20.7064 2.66635 23.5436 3.71307 25.8574C4.75978 28.1161 6.38494 30.2095 8.58855 32.1376L19.827 42.0539C21.9204 43.9269 23.6557 45.8 25.033 47.6731C26.4102 49.4911 27.0989 51.915 27.0989 54.945C27.0989 57.4791 26.4653 59.4349 25.1983 60.8121C23.9863 62.1343 22.1683 62.7954 19.7443 62.7954C17.3754 62.7954 15.5299 62.1067 14.2078 60.7295C12.8856 59.2971 11.9215 57.4791 11.3155 55.2755C10.9143 53.6708 10.6154 52.0222 10.4187 50.3298C10.3453 49.6982 10.2862 49.0606 10.2413 48.4168L1.97773 50.648C2.19809 54.5043 2.96935 57.8923 4.29152 60.8121C5.61368 63.7319 7.54184 66.0181 10.076 67.6708C12.6652 69.3236 15.888 70.1499 19.7443 70.1499C22.8845 70.1499 25.639 69.5164 28.0079 68.2493ZM42.8613 87V19.7499H55.4895V21.2721C55.7953 21.0656 56.1097 20.8667 56.4325 20.6754C58.2607 19.5921 60.3697 19.0888 62.6863 19.0888C65.4929 19.0888 67.9431 19.8407 69.8092 21.548C71.5503 23.0399 72.8219 24.9376 73.6364 27.1895C74.405 29.2608 74.9085 31.3936 75.1455 33.5845C75.3706 35.6111 75.4873 37.3913 75.4873 38.9137V50.4827C75.4873 53.9677 75.1444 57.2989 74.4521 60.4719L74.4506 60.4791C73.7295 63.7238 72.3819 66.4732 70.3464 68.6365C68.1928 70.9289 65.2134 71.9604 61.6947 71.9604C59.6671 71.9604 57.7978 71.4652 56.1464 70.4331L56.1228 70.4183L56.0996 70.4029C55.8933 70.2654 55.69 70.1252 55.4895 69.9825V87H42.8613ZM53.5964 65.8529C54.184 66.4714 54.8151 67.0553 55.4895 67.6044C56.0164 68.0333 56.5698 68.4411 57.1497 68.8277C58.4719 69.6541 59.9869 70.0673 61.6947 70.0673C64.8348 70.0673 67.2588 69.1583 68.9666 67.3403C70.7295 65.4672 71.9415 63.0433 72.6025 60.0684C73.2636 57.0384 73.5942 53.8432 73.5942 50.4827V38.9137C73.5942 37.4814 73.484 35.7736 73.2636 33.7903C73.0433 31.752 72.575 29.7688 71.8588 27.8406C71.1427 25.8574 70.0408 24.2322 68.5534 22.9651C67.1211 21.643 65.1654 20.9819 62.6863 20.9819C60.648 20.9819 58.8851 21.4226 57.3976 22.304C56.7152 22.7084 56.0792 23.1476 55.4895 23.6216C54.7939 24.1807 54.1629 24.7882 53.5964 25.4442V21.643H44.7544V85.1069H53.5964V65.8529ZM62.5451 33.71L62.5441 33.7021C62.3486 32.1867 61.9537 31.1721 61.4821 30.5191C61.2141 30.1479 60.7401 29.8163 59.6288 29.8163C58.7525 29.8163 57.9275 30.0019 57.1338 30.3778C56.5184 30.6693 55.9721 30.9866 55.4895 31.3265V59.9666C55.9797 60.2638 56.5156 60.5373 57.0995 60.7853C57.8938 61.072 58.8385 61.2328 59.9593 61.2328C60.9798 61.2328 61.3854 60.9168 61.6319 60.5149C62.1041 59.6794 62.4676 58.4392 62.6181 56.6839C62.778 54.8187 62.8591 52.7526 62.8591 50.4827V38.9137C62.8591 36.999 62.7526 35.266 62.5451 33.71ZM56.406 62.5475C55.3593 62.1067 54.4228 61.5834 53.5964 60.9774V30.4023C54.3677 29.7412 55.2767 29.1628 56.3234 28.667C57.3701 28.1711 58.4719 27.9232 59.6288 27.9232C61.1713 27.9232 62.3007 28.4191 63.0168 29.4107C63.733 30.4023 64.2013 31.752 64.4216 33.4598C64.642 35.1125 64.7522 36.9305 64.7522 38.9137V50.4827C64.7522 52.7965 64.6695 54.9174 64.5043 56.8456C64.339 58.7738 63.9258 60.3163 63.2647 61.4732C62.6037 62.575 61.5019 63.1259 59.9593 63.1259C58.6372 63.1259 57.4527 62.9331 56.406 62.5475ZM82.5363 65.3678L82.5281 65.3363C82.1021 63.6931 81.8891 62.0185 81.8891 60.3163V19.7499H94.5173V57.672C94.5173 59.2121 94.7435 60.2266 95.0506 60.8531C95.1008 60.9414 95.3206 61.2328 96.4254 61.2328C97.0519 61.2328 97.7653 61.0617 98.5859 60.6323C99.3262 60.2242 100.041 59.7598 100.73 59.238V19.7499H113.358V71.2993H100.73V68.6622C99.9337 69.2045 99.0994 69.7058 98.2276 70.1664C96.0096 71.3682 93.579 71.9604 90.9715 71.9604C88.7638 71.9604 86.7836 71.3693 85.2898 69.9541C83.9832 68.7163 83.0734 67.1805 82.5455 65.3991L82.5363 65.3678ZM97.3344 68.4972C98.5489 67.8562 99.6807 67.1326 100.73 66.3263C101.394 65.816 102.025 65.2725 102.623 64.696V69.4062H111.465V21.643H102.623V60.151C101.631 60.9774 100.585 61.6936 99.4829 62.2995C98.4362 62.8504 97.417 63.1259 96.4254 63.1259C94.8829 63.1259 93.8637 62.6576 93.3679 61.7211C92.8721 60.7295 92.6242 59.3798 92.6242 57.672V21.643H83.7822V60.3163C83.7822 61.8588 83.975 63.3738 84.3606 64.8612C84.8014 66.3487 85.5451 67.5882 86.5918 68.5798C87.6385 69.5715 89.0984 70.0673 90.9715 70.0673C93.2853 70.0673 95.4062 69.5439 97.3344 68.4972ZM121.342 71.2993V19.7499H133.97V22.8079C134.763 22.0234 135.584 21.382 136.437 20.902C138.441 19.7747 140.521 19.1714 142.654 19.1714H143.231C143.594 19.1714 143.984 19.2154 144.37 19.2798L145.952 19.5434V33.7378L143.331 32.6456C142.818 32.4319 142.179 32.2444 141.396 32.0977L141.326 32.0846L141.257 32.0662C140.595 31.8896 139.905 31.7996 139.183 31.7996C138.124 31.7996 137.182 32.0498 136.321 32.5418L136.295 32.5571C135.681 32.8947 134.888 33.6549 133.97 35.0768V71.2993H121.342ZM132.077 34.5341C133.179 32.7161 134.28 31.5041 135.382 30.8981C136.539 30.237 137.806 29.9065 139.183 29.9065C140.065 29.9065 140.919 30.0167 141.745 30.237C141.888 30.2639 142.028 30.2922 142.166 30.3219C142.874 30.4753 143.505 30.6674 144.059 30.8981V21.1471C143.728 21.092 143.453 21.0645 143.233 21.0645H142.654C140.891 21.0645 139.128 21.5603 137.365 22.5519C136.234 23.1886 135.102 24.2227 133.97 25.6542C133.339 26.4523 132.708 27.3739 132.077 28.4191V21.643H123.235V69.4062H132.077V34.5341ZM157.701 70.2645C155.866 69.1092 154.516 67.4743 153.658 65.4281L153.648 65.4039L153.638 65.3794C152.874 63.4046 152.519 61.152 152.519 58.6636V29.4032H147.478V19.7499H152.519V5.78448H165.147V19.7499H172.832V29.4032H165.147V58.0851C165.147 59.7876 165.43 60.6308 165.666 60.9805C165.757 61.0753 166.189 61.3981 167.634 61.3981C167.998 61.3981 168.43 61.3752 168.933 61.3248L168.95 61.3231C169.551 61.2686 170.124 61.214 170.668 61.1596L172.75 60.9514V71.2018L171.137 71.4436C170.01 71.6127 168.952 71.7286 167.965 71.7886C166.96 71.9043 165.884 71.9604 164.742 71.9604C162.04 71.9604 159.656 71.4522 157.727 70.2807L157.701 70.2645ZM167.799 69.902C168.736 69.8469 169.755 69.7367 170.857 69.5715V63.0433C170.306 63.0984 169.727 63.1534 169.121 63.2085C169.068 63.2138 169.016 63.2189 168.964 63.2237C168.475 63.2687 168.032 63.2912 167.634 63.2912C165.926 63.2912 164.769 62.9055 164.163 62.1343C163.557 61.3079 163.254 59.9582 163.254 58.0851V27.5101H170.939V21.643H163.254V7.67758H154.412V21.643H149.371V27.5101H154.412V58.6636C154.412 60.9774 154.743 62.9882 155.404 64.696C156.12 66.4038 157.222 67.7259 158.709 68.6625C160.252 69.599 162.263 70.0673 164.742 70.0673C165.843 70.0673 166.863 70.0122 167.799 69.902Z" fill="#302E2E"/>
</svg>
