<svg width="65" height="16" viewBox="0 0 65 16" fill="none" xmlns="http://www.w3.org/2000/svg">
<path fill-rule="evenodd" clip-rule="evenodd" d="M0.890625 0.84375V12.1562H3.23438V8.92188L4.42188 7.48438L7.5625 12.1562H10.375L6.10938 5.90625L10.3281 0.84375H7.5L3.39062 5.85938H3.23438V0.84375H0.890625ZM60.2031 12.2969C58.2656 12.2969 56.75 10.75 56.75 7.92188C56.75 5.01562 58.3281 3.5625 60.2031 3.5625C61.625 3.5625 62.2969 4.40625 62.6094 5.09375H62.6875V0.84375H65V12.1562H62.7188V10.7969H62.6094C62.2812 11.5 61.5781 12.2969 60.2031 12.2969ZM60.9219 10.4531C62.0781 10.4531 62.7344 9.4375 62.7344 7.90625C62.7344 6.375 62.0781 5.40625 60.9219 5.40625C59.75 5.40625 59.125 6.42188 59.125 7.90625C59.125 9.40625 59.75 10.4531 60.9219 10.4531ZM51.1094 12.1562V3.67188H53.3438V5.14062H53.4375C53.75 4.09375 54.5312 3.54688 55.4844 3.54688C55.7188 3.54688 56.0156 3.57812 56.2188 3.625V5.6875C56 5.625 55.5625 5.5625 55.2344 5.5625C54.1875 5.5625 53.4219 6.29688 53.4219 7.32812V12.1562H51.1094ZM41.3281 7.9375C41.3281 10.5625 42.9219 12.3281 45.4844 12.3281C48.0469 12.3281 49.6562 10.5625 49.6562 7.9375C49.6562 5.3125 48.0469 3.5625 45.4844 3.5625C42.9219 3.5625 41.3281 5.3125 41.3281 7.9375ZM47.2969 7.9375C47.2969 9.42188 46.6875 10.5312 45.5 10.5312C44.2969 10.5312 43.6719 9.42188 43.6719 7.9375C43.6719 6.4375 44.2969 5.32812 45.5 5.32812C46.6875 5.32812 47.2969 6.4375 47.2969 7.9375ZM30.4531 12.1562L28.1406 3.67188H30.4844L31.8125 9.40625H31.8906L33.2812 3.67188H35.5781L36.9844 9.375H37.0625L38.375 3.67188H40.7188L38.3906 12.1562H35.9531L34.4844 6.76562H34.375L32.9062 12.1562H30.4531ZM19.9688 15.2969C20.2656 15.3281 20.6875 15.3438 21.1406 15.3438C22.9375 15.3438 23.8594 14.4531 24.3438 13.0938L27.6562 3.67188H25.2031L23.4062 9.92188H23.3125L21.5312 3.67188H19.1094L22.1562 12.3906L22.0156 12.75C21.7344 13.4844 21.3594 13.5312 20.9062 13.5312C20.6094 13.5312 20.2656 13.5156 19.9688 13.5V15.2969ZM14.6719 12.3281C12.0781 12.3281 10.4844 10.6406 10.4844 7.95312C10.4844 5.32812 12.0938 3.5625 14.5781 3.5625C16.8125 3.5625 18.5625 4.96875 18.5625 7.85938V8.51562H12.7656C12.7656 9.79688 13.5312 10.5938 14.7188 10.5938C15.5 10.5938 16.0625 10.25 16.2969 9.73438H18.5C18.1719 11.2969 16.7656 12.3281 14.6719 12.3281ZM12.7656 7.0625H16.375C16.375 6.03125 15.6562 5.29688 14.625 5.29688C13.5625 5.29688 12.8047 6.08594 12.7656 7.0625Z" fill="#302E2E"/>
</svg>
