<svg width="18" height="18" viewBox="0 0 18 18" fill="none" xmlns="http://www.w3.org/2000/svg">
<g clip-path="url(#clip0_1041_9303)">
<path d="M7.49732 9.75046C7.81941 10.1811 8.23033 10.5374 8.70223 10.7952C9.17412 11.053 9.69595 11.2063 10.2323 11.2447C10.7687 11.2831 11.307 11.2057 11.8108 11.0178C12.3146 10.8299 12.7722 10.5358 13.1523 10.1555L15.4023 7.90546C16.0854 7.1982 16.4634 6.25095 16.4548 5.26771C16.4463 4.28447 16.0519 3.34392 15.3566 2.64864C14.6614 1.95336 13.7208 1.55898 12.7376 1.55043C11.7543 1.54189 10.8071 1.91987 10.0998 2.60296L8.80982 3.88546M10.4975 8.25047C10.1754 7.81988 9.76445 7.46359 9.29255 7.20577C8.82066 6.94795 8.29884 6.79464 7.76248 6.75622C7.22612 6.71781 6.68778 6.7952 6.18396 6.98314C5.68014 7.17108 5.22263 7.46517 4.84247 7.84547L2.59246 10.0955C1.90937 10.8027 1.53139 11.75 1.53994 12.7332C1.54848 13.7165 1.94286 14.657 2.63815 15.3523C3.33343 16.0476 4.27397 16.442 5.25721 16.4505C6.24045 16.459 7.18771 16.0811 7.89497 15.398L9.17747 14.1155" stroke="#FFD66C" stroke-width="1.5" stroke-linecap="round" stroke-linejoin="round"/>
</g>
<defs>
<clipPath id="clip0_1041_9303">
<rect width="18" height="18" fill="white"/>
</clipPath>
</defs>
</svg>
