<svg width="80" height="23" viewBox="0 0 80 23" fill="none" xmlns="http://www.w3.org/2000/svg">
<path d="M0.541895 7.30109C0.541895 5.29156 1.12895 3.67717 2.30305 2.4579C3.47716 1.23864 5.08027 0.629007 7.11237 0.629007C9.16706 0.629007 11.2669 0.832217 13.4119 1.23864L12.7345 6.65759C10.4992 6.13828 8.96385 5.87862 8.12843 5.87862C7.06722 5.87862 6.53661 6.30762 6.53661 7.16562C6.53661 7.5043 6.78498 7.8317 7.28172 8.1478C7.80103 8.46391 8.42195 8.80259 9.14448 9.16386C9.86701 9.50254 10.5895 9.92025 11.3121 10.417C12.0346 10.8911 12.6442 11.5798 13.141 12.483C13.6603 13.3861 13.9199 14.4248 13.9199 15.5989C13.9199 17.7439 13.3442 19.4034 12.1926 20.5775C11.0411 21.7516 9.40414 22.3387 7.28172 22.3387C5.18187 22.3387 3.12719 22.0113 1.11766 21.3565L1.49021 16.3101C3.90616 17.01 5.58829 17.36 6.53661 17.36C7.48493 17.36 7.95909 16.9423 7.95909 16.1069C7.95909 15.6779 7.69943 15.2828 7.18011 14.9215C6.68337 14.5602 6.07374 14.199 5.35122 13.8377C4.62869 13.4764 3.89487 13.0587 3.14977 12.5846C2.42724 12.1104 1.80632 11.4218 1.287 10.5186C0.790264 9.61544 0.541895 8.54294 0.541895 7.30109ZM23.1917 15.1247H21.6337V22H15.9438V0.967691H22.8191C25.2351 0.967691 27.0301 1.52088 28.2042 2.62725C29.3783 3.73362 29.9654 5.55122 29.9654 8.08007C29.9654 10.6089 29.4122 12.4152 28.3058 13.499C27.1995 14.5828 25.4947 15.1247 23.1917 15.1247ZM23.8352 10.5525C24.0384 10.1686 24.14 9.47996 24.14 8.48649C24.14 7.49301 24.0271 6.79307 23.8013 6.38664C23.5755 5.98022 23.1239 5.77701 22.4466 5.77701H21.6337V11.1282H22.5821C23.2143 11.1282 23.632 10.9363 23.8352 10.5525ZM37.5813 15.0908C37.5813 15.7908 37.728 16.3101 38.0216 16.6488C38.3151 16.9875 38.7893 17.1568 39.444 17.1568C40.1214 17.1568 40.5843 16.9988 40.8327 16.6827C41.1036 16.344 41.2391 15.8021 41.2391 15.057V0.967691H47.0644V15.3957C47.0644 17.8116 46.3984 19.5728 45.0662 20.6791C43.7566 21.7855 41.8148 22.3387 39.2408 22.3387C36.6894 22.3387 34.7815 21.7968 33.5171 20.713C32.2752 19.6066 31.6543 17.8568 31.6543 15.4634V0.967691H37.5813V15.0908ZM64.4379 7.63978C64.4379 8.9042 64.246 9.95412 63.8621 10.7895C63.4783 11.625 62.88 12.3814 62.0671 13.0587L64.8782 22H58.6125L56.5127 14.4135H55.7337V22H50.0438V0.967691H57.9013C60.1592 0.967691 61.8075 1.4983 62.8461 2.55951C63.9073 3.62072 64.4379 5.31414 64.4379 7.63978ZM56.6143 10.8573C57.2013 10.8573 57.6191 10.6879 57.8674 10.3493C58.1158 10.0106 58.24 9.40094 58.24 8.52036C58.24 7.6172 58.1158 6.99628 57.8674 6.65759C57.6191 6.29633 57.2126 6.1157 56.6482 6.1157H55.7337V10.8573H56.6143ZM79.0061 6.08183H75.0774V22H69.2859V6.08183H65.12L65.4587 0.967691H79.3448L79.0061 6.08183Z" fill="#302E2E"/>
</svg>
