<svg width="65" height="19" viewBox="0 0 65 19" fill="none" xmlns="http://www.w3.org/2000/svg">
<path d="M0.44029 6.05714C0.44029 4.4244 0.917271 3.1127 1.87123 2.12205C2.82519 1.13139 4.12772 0.636068 5.7788 0.636068C7.44824 0.636068 9.15436 0.801176 10.8972 1.13139L10.3468 5.53429C8.53062 5.11235 7.28313 4.90138 6.60435 4.90138C5.74211 4.90138 5.311 5.24994 5.311 5.94706C5.311 6.22225 5.5128 6.48825 5.9164 6.74509C6.33834 7.00193 6.84284 7.27711 7.42989 7.57063C8.01694 7.84581 8.604 8.1852 9.19105 8.5888C9.7781 8.97406 10.2734 9.53359 10.677 10.2674C11.099 11.0012 11.3099 11.8451 11.3099 12.7991C11.3099 14.5419 10.8421 15.8903 9.90652 16.8442C8.97091 17.7982 7.64086 18.2752 5.9164 18.2752C4.21027 18.2752 2.54084 18.0092 0.908098 17.4772L1.2108 13.377C3.17376 13.9457 4.54049 14.23 5.311 14.23C6.0815 14.23 6.46676 13.8906 6.46676 13.2118C6.46676 12.8633 6.25579 12.5422 5.83384 12.2487C5.43024 11.9552 4.93492 11.6617 4.34786 11.3681C3.76081 11.0746 3.16458 10.7352 2.55918 10.35C1.97213 9.96471 1.46763 9.40517 1.04569 8.67136C0.642089 7.93754 0.44029 7.06613 0.44029 6.05714ZM18.8432 12.4138H17.5774V18H12.9544V0.911249H18.5405C20.5035 0.911249 21.962 1.36071 22.9159 2.25964C23.8699 3.15856 24.3469 4.63537 24.3469 6.69005C24.3469 8.74474 23.8974 10.2124 22.9985 11.093C22.0996 11.9735 20.7145 12.4138 18.8432 12.4138ZM19.3661 8.69888C19.5312 8.387 19.6138 7.82747 19.6138 7.02027C19.6138 6.21307 19.522 5.64437 19.3386 5.31415C19.1551 4.98393 18.7882 4.81882 18.2378 4.81882H17.5774V9.16668H18.3479C18.8616 9.16668 19.201 9.01075 19.3661 8.69888ZM30.5348 12.3863C30.5348 12.955 30.654 13.377 30.8925 13.6521C31.131 13.9273 31.5163 14.0649 32.0483 14.0649C32.5987 14.0649 32.9747 13.9365 33.1765 13.6797C33.3967 13.4045 33.5067 12.9642 33.5067 12.3588V0.911249H38.2399V12.634C38.2399 14.5969 37.6987 16.0279 36.6163 16.9268C35.5523 17.8257 33.9746 18.2752 31.8832 18.2752C29.8101 18.2752 28.26 17.8349 27.2326 16.9543C26.2236 16.0554 25.7191 14.6336 25.7191 12.689V0.911249H30.5348V12.3863ZM52.3558 6.33232C52.3558 7.35966 52.1999 8.21272 51.888 8.8915C51.5761 9.57028 51.09 10.1849 50.4295 10.7352L52.7135 18H47.6227L45.9166 11.8359H45.2836V18H40.6606V0.911249H47.0448C48.8793 0.911249 50.2186 1.34237 51.0624 2.2046C51.9247 3.06684 52.3558 4.44274 52.3558 6.33232ZM45.9991 8.94654C46.4761 8.94654 46.8155 8.80895 47.0173 8.53377C47.2191 8.25859 47.32 7.76326 47.32 7.04779C47.32 6.31397 47.2191 5.80947 47.0173 5.53429C46.8155 5.24077 46.4853 5.094 46.0266 5.094H45.2836V8.94654H45.9991ZM64.1925 5.06648H61.0004V18H56.2948V5.06648H52.91L53.1852 0.911249H64.4676L64.1925 5.06648Z" fill="#302E2E"/>
</svg>
