<svg width="20" height="20" viewBox="0 0 20 20" fill="none" xmlns="http://www.w3.org/2000/svg">
<g clip-path="url(#clip0_803_10019)">
<path d="M9.73489 0.288128L9.73498 0.288101C9.81653 0.264021 9.90281 0.256337 9.98888 0.265386C10.0749 0.274435 10.1592 0.300039 10.2368 0.340707M9.73489 0.288128L10.2196 0.375059M9.73489 0.288128C9.6534 0.312417 9.57827 0.352623 9.51385 0.406541C9.44944 0.460448 9.39706 0.526965 9.35975 0.602302M9.73489 0.288128L9.35975 0.602302M10.2368 0.340707C10.2368 0.340712 10.2368 0.340717 10.2368 0.340723L10.2196 0.375059M10.2368 0.340707L10.2367 0.340692L10.2196 0.375059M10.2368 0.340707L18.0612 4.4243C18.2179 4.50609 18.3388 4.64447 18.397 4.80945C18.4551 4.97452 18.4457 5.15278 18.3701 5.30481C18.0005 6.04772 17.3434 6.38321 16.8354 6.53484L16.8352 6.5349C16.6341 6.59365 16.4481 6.62758 16.2944 6.647M10.2196 0.375059L18.0441 4.45867C18.1924 4.53603 18.3064 4.66677 18.3611 4.82212C18.4159 4.97747 18.4069 5.14471 18.3361 5.28704C17.973 6.01694 17.3269 6.34767 16.8243 6.49771C16.6167 6.55838 16.4252 6.5923 16.2694 6.61106M16.2944 6.647L16.3035 6.62882L16.2694 6.61106M16.2944 6.647L13.9474 11.3652M16.2944 6.647C16.2877 6.64785 16.281 6.64868 16.2744 6.64948L16.2694 6.61106M16.2694 6.61106L13.9035 11.3672M14.5082 12.4981C14.3295 12.0789 14.1242 11.719 13.9651 11.4642L13.9035 11.3672M14.5082 12.4981C14.854 13.3059 15.1679 14.4864 14.6483 15.5308C14.5775 15.6731 14.4507 15.7789 14.2959 15.8249C14.141 15.8708 13.9707 15.8532 13.8225 15.7758L9.38537 13.4601L9.36828 13.4944M14.5082 12.4981L14.5431 12.483C14.5431 12.483 14.5431 12.483 14.5431 12.483M14.5082 12.4981L14.5431 12.483M9.36828 13.4944L9.33425 13.4767L6.9486 18.2725C6.80123 18.5688 5.8973 19.7519 5.58879 19.5909C5.28028 19.4299 5.68345 17.9854 5.83082 17.6891L8.21646 12.8933L8.18244 12.8756M9.36828 13.4944L6.98263 18.2903C6.90668 18.4429 6.64122 18.8158 6.35729 19.1295C6.21512 19.2866 6.06647 19.431 5.93279 19.5262C5.86605 19.5738 5.80129 19.6103 5.74161 19.6295C5.68219 19.6486 5.62284 19.6519 5.5717 19.6253C5.52055 19.5986 5.48831 19.5474 5.46846 19.487C5.44853 19.4262 5.43934 19.3511 5.43766 19.2678C5.43429 19.1011 5.46095 18.893 5.50147 18.6829C5.5824 18.2632 5.72084 17.8241 5.79679 17.6714L8.18244 12.8756M9.36828 13.4944L13.8054 15.8102C13.9621 15.892 14.1424 15.9108 14.3069 15.862C14.4715 15.8132 14.6067 15.7006 14.6824 15.5486C15.2099 14.4881 14.89 13.2932 14.5431 12.483M8.18244 12.8756L8.19953 12.8412L3.76243 10.5255C3.6142 10.4481 3.50017 10.3174 3.44542 10.162C3.39068 10.0067 3.3997 9.83941 3.47051 9.69708C3.99003 8.65268 5.10694 8.21886 5.94712 8.03C6.35623 7.9398 6.77437 7.88525 7.19684 7.86696L9.56275 3.11082C9.46946 2.94142 9.39033 2.76535 9.32617 2.58444C9.14921 2.07972 9.03123 1.34888 9.39378 0.620062M8.18244 12.8756L3.74533 10.5598C3.58862 10.478 3.46773 10.3397 3.40959 10.1747C3.35142 10.0096 3.36085 9.83134 3.43648 9.67932C3.964 8.61884 5.09579 8.18165 5.93848 7.99223L5.93863 7.99219C6.34275 7.9031 6.7556 7.8486 7.17271 7.82929L9.51965 3.11129C9.42964 2.94561 9.35295 2.77368 9.29035 2.59719L9.29031 2.59705C9.11147 2.08697 8.99073 1.34413 9.35975 0.602302M9.39378 0.620062L9.35972 0.602366C9.35973 0.602345 9.35974 0.602324 9.35975 0.602302M9.39378 0.620062L9.35975 0.602302M9.39378 0.620062L9.35975 0.602302M14.5431 12.483C14.3634 12.0615 14.157 11.6996 13.9972 11.4438L13.997 11.4435L13.9474 11.3652M13.9474 11.3652L13.9355 11.3465L13.9035 11.3672M13.9474 11.3652L13.9376 11.385L13.9035 11.3672M16.4109 5.32473L16.3998 5.28759C16.5079 5.25554 16.615 5.21443 16.7148 5.16024L10.4474 1.88927C10.4637 2.00381 10.4925 2.11654 10.5313 2.22463L10.5314 2.22474C10.595 2.4035 10.6817 2.57455 10.7893 2.7335L10.7903 2.73489L10.7905 2.73505C10.8645 2.83349 10.9105 2.94906 10.9233 3.06906C10.9362 3.18908 10.9151 3.30873 10.8625 3.41463L8.19275 8.78151C8.13985 8.88784 8.05724 8.97587 7.95435 9.03581C7.85148 9.09574 7.73248 9.12521 7.61074 9.12121L7.60213 9.12093L7.60101 9.12034L7.5937 9.12056L7.59293 9.12058L7.59293 9.12057L7.51661 9.12127L16.756 5.1817C16.6467 5.24383 16.5289 5.28972 16.4109 5.32473ZM16.4109 5.32473C16.2374 5.37568 16.057 5.40462 15.8739 5.41085M16.4109 5.32473L16.3999 5.28756C16.2301 5.33743 16.0535 5.36585 15.8741 5.37212M15.8739 5.41085L15.8762 5.37227C15.8755 5.37222 15.8748 5.37217 15.8741 5.37212M15.8739 5.41085C15.7541 5.40196 15.6361 5.4274 15.5342 5.48411C15.4323 5.54082 15.3508 5.62636 15.2996 5.73036M15.8739 5.41085L15.2996 5.73036M15.8741 5.37212C15.748 5.36314 15.6235 5.3901 15.5156 5.45013C15.4072 5.51048 15.3202 5.60161 15.2655 5.7126M15.8741 5.37212L15.2655 5.7126M15.2655 5.7126C15.2655 5.71265 15.2655 5.7127 15.2655 5.71275L15.2655 5.7126ZM12.6299 11.0972L15.2996 5.73036M12.6299 11.0972L12.5959 11.0794M12.6299 11.0972C12.58 11.1969 12.5601 11.3098 12.5723 11.4232C12.5846 11.5365 12.6285 11.646 12.6992 11.7391L12.5959 11.0794M12.6299 11.0972L12.5958 11.0795L12.5959 11.0794M15.2996 5.73036L12.6744 11.7695L12.6691 11.7625C12.5942 11.6638 12.5475 11.5476 12.5345 11.4269C12.5215 11.3062 12.5426 11.1858 12.5959 11.0794M13.6457 14.2882L5.04132 9.79758C5.36904 9.54015 5.81178 9.36768 6.29024 9.26049C6.69085 9.17244 7.10178 9.12578 7.51655 9.12127L13.6457 14.2882ZM16.7546 5.13772L10.4415 1.8429L16.7546 5.13772ZM10.4062 1.86774C10.422 1.99429 10.4529 2.11875 10.4956 2.23752L10.4062 1.86774Z" fill="#FE7448" stroke="#FE7448" stroke-width="0.0767705"/>
<path d="M17.6437 5.06025L10.432 1.40039H10.0077V3.02699L7.46244 8.31345L4.51807 9.76991L13.9677 14.7001L13.4015 11.16L15.5226 6.2802L17.6437 5.06025Z" fill="#FE7448" stroke="#FE7448" stroke-width="0.767705"/>
</g>
<defs>
<clipPath id="clip0_803_10019">
<rect width="20" height="20" fill="white"/>
</clipPath>
</defs>
</svg>
