<?xml version="1.0" encoding="UTF-8"?>
<svg id="_레이어_1" data-name="레이어 1" xmlns="http://www.w3.org/2000/svg" viewBox="0 0 12 17">
  <defs>
    <style>
      .cls-1 {
        fill: #fe7448;
      }

      .cls-2 {
        fill: #dc5b2f;
      }
    </style>
  </defs>
  <path class="cls-1" d="m1.77,10.11c.23-.51.86-1.27,1.29-1.66l-1.16-3.91c-.46-.21-.89-.44-1.29-.83-.47-.39-.73-1.17-.09-1.5L8.34.14c.7-.07.91.93.68,1.49-.17.53-.42.98-.73,1.37l.8,3.97c.56.15,1.46.36,1.93.68,1.02.68,1.08,2.01.39,2.17l-3.87,1.04c.32,1.43.92,4.1.98,4.61.07.54-.02,1.35-.2,1.39s-.63-.63-.83-1.15c-.18-.47-.82-3.14-1.2-4.55l-3.92.99c-.68.16-1-1.18-.6-2.05Z"/>
  <path class="cls-2" d="m8.3,17s.03,0,.05,0c.37-.09.34-1.23.3-1.54-.05-.49-.61-2.97-.95-4.49l3.74-1.01c.28-.07.47-.3.53-.63.09-.51-.14-1.29-.89-1.79-.43-.29-1.19-.49-1.75-.64l-.14-.04-.77-3.82c.32-.42.56-.87.71-1.37.18-.41.12-1.01-.14-1.35-.17-.23-.41-.33-.68-.31L.48,2.07C.19,2.22.03,2.44,0,2.72c-.04.37.17.81.52,1.09.39.39.84.63,1.26.83l1.12,3.77c-.45.42-1.03,1.15-1.26,1.65-.3.64-.24,1.56.13,2.01.17.2.39.29.63.23l3.79-.96c.12.47.27,1.07.43,1.66.32,1.26.62,2.46.74,2.77.11.28.58,1.24.94,1.24Zm.11-16.73c.14,0,.27.07.37.2.2.27.25.76.1,1.1-.16.5-.39.94-.71,1.34l-.04.05.83,4.11.31.08c.54.14,1.27.33,1.66.6.61.41.85,1.07.77,1.52-.02.13-.1.36-.33.41l-4,1.08.03.13c.34,1.5.92,4.1.97,4.59.06.49-.01,1.08-.1,1.23-.14-.09-.49-.58-.66-1.05-.12-.3-.43-1.54-.74-2.74-.17-.65-.33-1.3-.46-1.8l-.04-.13-4.05,1.03c-.13.03-.24-.01-.35-.14-.27-.33-.37-1.13-.09-1.72h0c.21-.48.82-1.22,1.26-1.62l.06-.06-.02-.08-1.18-3.97-.06-.03c-.48-.22-.88-.44-1.25-.81-.28-.23-.46-.58-.43-.86.02-.18.12-.33.3-.42L8.38.27s.02,0,.04,0Z"/>
</svg>