<svg width="20" height="20" viewBox="0 0 20 20" fill="none" xmlns="http://www.w3.org/2000/svg">
<g clip-path="url(#clip0_803_10019)">
<path d="M9.73489 0.288128L9.73498 0.288101C9.81653 0.264021 9.90281 0.256337 9.98888 0.265387C10.0749 0.274435 10.1592 0.300039 10.2368 0.340707M9.73489 0.288128L10.2196 0.375059M9.73489 0.288128C9.6534 0.312417 9.57827 0.352623 9.51385 0.406541C9.44944 0.460447 9.39706 0.526965 9.35975 0.602302M9.73489 0.288128L9.29035 2.59719L9.29031 2.59705C9.11147 2.08697 8.99073 1.34413 9.35975 0.602302M10.2368 0.340707C10.2368 0.340712 10.2368 0.340717 10.2368 0.340723L10.2196 0.375059M10.2368 0.340707L10.2367 0.340692L10.2196 0.375059M10.2368 0.340707L18.0612 4.4243C18.2179 4.50609 18.3388 4.64447 18.397 4.80945C18.4551 4.97452 18.4457 5.15278 18.3701 5.30481C18.0005 6.04772 17.3434 6.38321 16.8354 6.53484L16.8352 6.5349C16.6341 6.59365 16.4481 6.62758 16.2944 6.647M10.2196 0.375059L18.0441 4.45867C18.1924 4.53603 18.3064 4.66677 18.3611 4.82212C18.4159 4.97747 18.4069 5.14471 18.3361 5.28704C17.973 6.01694 17.3269 6.34767 16.8243 6.49771C16.6167 6.55838 16.4252 6.5923 16.2694 6.61106M16.2944 6.647L16.3035 6.62882L16.2694 6.61106M16.2944 6.647L13.9474 11.3652M16.2944 6.647C16.2877 6.64785 16.281 6.64868 16.2744 6.64948L16.2694 6.61106M16.2694 6.61106L13.9035 11.3672M13.9474 11.3652L13.9035 11.3672M13.9474 11.3652L13.9376 11.385L13.9035 11.3672M13.9474 11.3652L13.9355 11.3465L13.9035 11.3672M9.35975 0.602302L9.39377 0.620055L9.35972 0.602366C9.35973 0.602345 9.35974 0.602324 9.35975 0.602302ZM10.7904 2.73489L10.7905 2.73505C10.8645 2.83349 10.9105 2.94906 10.9233 3.06906C10.9362 3.18908 10.9151 3.30873 10.8625 3.41463L8.19274 8.78152C8.13985 8.88785 8.05724 8.97587 7.95435 9.03581C7.85148 9.09574 7.73248 9.12521 7.61074 9.12121L7.60213 9.12093L7.60101 9.12034L7.5937 9.12056L7.59293 9.12058L7.59293 9.12057L7.51661 9.12127C7.10182 9.12578 6.69087 9.17243 6.29024 9.26049C5.81178 9.36768 5.36904 9.54015 5.04132 9.79758L13.6457 14.2882C13.6564 13.8653 13.5324 13.3971 13.3358 12.9377L10.7904 2.73489ZM10.7904 2.73489L10.7893 2.7335C10.6817 2.57455 10.595 2.4035 10.5314 2.22474L10.5313 2.22463C10.4925 2.11654 10.4637 2.00381 10.4474 1.88927L16.7148 5.16024L10.7904 2.73489ZM12.6744 11.7695L12.6691 11.7625C12.5942 11.6638 12.5475 11.5476 12.5345 11.4269C12.5215 11.3062 12.5426 11.1858 12.5959 11.0794M12.6744 11.7695L15.2655 5.71274M12.6744 11.7695L12.6766 11.7707M12.6744 11.7695L12.6766 11.7707M12.5959 11.0794L12.6296 11.0971L12.5958 11.0795L12.5959 11.0794ZM12.5959 11.0794L15.2655 5.71274M15.2655 5.71274C15.3201 5.60169 15.4071 5.5105 15.5156 5.45013C15.6235 5.3901 15.748 5.36314 15.8741 5.37212C16.0535 5.36585 16.2301 5.33743 16.3999 5.28756L15.2655 5.71274ZM12.6766 11.7707L12.6812 11.7767M12.6766 11.7707L12.6812 11.7767M12.6812 11.7767C12.9404 12.1412 13.1599 12.5304 13.3358 12.9375L12.6812 11.7767ZM9.38537 13.4601L9.35134 13.4423L9.33425 13.4767L9.36828 13.4944L9.38537 13.4601ZM14.5431 12.483C14.5431 12.483 14.5431 12.483 14.5431 12.483L14.5082 12.4981L14.5431 12.483ZM8.18244 12.8755L8.21647 12.8933L8.23356 12.8589L8.19953 12.8412L8.18244 12.8755ZM7.19684 7.86696L7.19479 7.8283C7.18743 7.82862 7.18007 7.82895 7.17271 7.82929L7.16281 7.8492L7.19684 7.86696ZM9.51965 3.11129C9.52294 3.11734 9.52624 3.12338 9.52956 3.12942L9.56275 3.11082L9.52872 3.09306L9.51965 3.11129Z" fill="#FE7448" stroke="#FE7448" stroke-width="0.0767705"/>
<path d="M17.6437 5.06025L10.432 1.40039H10.0077V3.02699L7.46244 8.31345L4.51807 9.76991L13.9677 14.7001L13.4015 11.16L15.5226 6.2802L17.6437 5.06025Z" fill="#FE7448" stroke="#FE7448" stroke-width="0.767705"/>
</g>
<defs>
<clipPath id="clip0_803_10019">
<rect width="20" height="20" fill="white"/>
</clipPath>
</defs>
</svg>
