<?xml version="1.0" encoding="UTF-8"?>
<svg id="_레이어_1" data-name="레이어 1" xmlns="http://www.w3.org/2000/svg" viewBox="0 0 15.51 19.47">
  <defs>
    <style>
      .cls-1 {
        fill: #fd7448;
      }
    </style>
  </defs>
  <path class="cls-1" d="m11.35,13.69c-.11-.67-.48-1.58-.85-2.16l2.42-4.52c.6-.11,1.18-.31,1.75-.65.66-.31,1.2-1.38.56-1.73l-4.26-2.28L6.7.07c-.64-.34-1.24.7-1.13,1.42.04.66.19,1.26.43,1.82l-2.42,4.52c-.69.01-1.65.21-2.27.49-1.05.46-1.74,1.8-1.01,2.19l4.21,2.25c-.8,1.57-2.31,4.44-2.52,5.01-.24.61-.38,1.58-.19,1.68s.92-.55,1.3-1.09c.35-.5,1.91-3.34,2.77-4.88l4.21,2.25c.74.39,1.47-.92,1.27-2.06Z"/>
</svg>