<svg width="24" height="24" viewBox="0 0 24 24" fill="none" xmlns="http://www.w3.org/2000/svg">
<g clip-path="url(#clip0_803_9984)">
<path d="M12.4418 0.986584C12.3507 0.93886 12.2519 0.908813 12.1509 0.898195C12.0499 0.887575 11.9487 0.896592 11.8529 0.92485L11.8528 0.924883C11.7572 0.953385 11.669 1.00057 11.5934 1.06384C11.5179 1.1271 11.4564 1.20516 11.4126 1.29357L11.4525 1.31441M12.4418 0.986584C12.4418 0.98659 12.4418 0.986596 12.4418 0.986603L12.4217 1.02684L12.4418 0.986567L12.4418 0.986584ZM12.4418 0.986584L21.6239 5.77876C21.8079 5.87474 21.9497 6.03712 22.0179 6.23073C22.0862 6.42444 22.0751 6.63363 21.9864 6.81204C21.5527 7.68386 20.7815 8.07757 20.1854 8.2555L20.1851 8.25558C19.9492 8.32452 19.7309 8.36435 19.5506 8.38713M19.5506 8.38713L19.5612 8.3658L19.5213 8.34496M19.5506 8.38713C19.5427 8.38813 19.5348 8.3891 19.527 8.39004L19.5213 8.34496M19.5506 8.38713L16.7963 13.9241M19.5213 8.34496C19.7041 8.32294 19.9287 8.28313 20.1723 8.21194C20.7622 8.03587 21.5204 7.64774 21.9465 6.7912C22.0295 6.62416 22.0401 6.4279 21.9759 6.2456C21.9116 6.06329 21.7778 5.90987 21.6039 5.81909L12.4217 1.0269C12.3356 0.981769 12.2422 0.953379 12.1468 0.943351C12.0514 0.933323 11.956 0.941854 11.8659 0.968456C11.7759 0.995286 11.693 1.03965 11.6221 1.09901C11.5512 1.15837 11.4936 1.23157 11.4525 1.31441M19.5213 8.34496L16.7448 13.9264M11.4525 1.31441C11.0271 2.1697 11.1655 3.02735 11.3732 3.61965C11.4485 3.83194 11.5414 4.03857 11.6508 4.23737L11.4126 1.29365M11.4525 1.31441L11.4126 1.29365M11.4126 1.29365C10.9796 2.16417 11.1213 3.03587 11.3311 3.63445L11.3312 3.6346C11.4046 3.84172 11.4946 4.04348 11.6003 4.23792L8.84608 9.77457M11.4126 1.29365L8.84608 9.77457M16.7448 13.9264L16.7823 13.9021L16.7963 13.9241M16.7448 13.9264L16.8171 14.0402C17.0038 14.3392 17.2447 14.7616 17.4544 15.2534M16.7448 13.9264L16.7848 13.9472L16.7963 13.9241M16.7963 13.9241L16.8546 14.0159L16.8547 14.0162C17.0423 14.3165 17.2845 14.7411 17.4954 15.2358M17.4544 15.2534L17.4954 15.2357C17.4954 15.2358 17.4954 15.2358 17.4954 15.2358M17.4544 15.2534C17.8602 16.2014 18.2285 17.5868 17.6189 18.8124C17.5358 18.9795 17.387 19.1036 17.2052 19.1575C17.0235 19.2114 16.8236 19.1907 16.6497 19.0999L11.4427 16.3824L11.4226 16.4227M17.4544 15.2534L17.4954 15.2358M17.4954 15.2358C17.9024 16.1867 18.2778 17.5888 17.6588 18.8333C17.5701 19.0117 17.4113 19.1438 17.2182 19.2011C17.0252 19.2584 16.8135 19.2363 16.6296 19.1403L11.4226 16.4227M11.4226 16.4227L8.62302 22.0507C8.53389 22.2299 8.22236 22.6674 7.88917 23.0356C7.72233 23.22 7.54789 23.3894 7.39101 23.5011C7.31269 23.5569 7.23669 23.5998 7.16666 23.6223C7.09692 23.6447 7.02728 23.6487 6.96726 23.6173C6.90724 23.586 6.8694 23.526 6.84611 23.455C6.82272 23.3838 6.81194 23.2956 6.80997 23.1979C6.80602 23.0022 6.8373 22.7581 6.88486 22.5114C6.97982 22.0189 7.14228 21.5036 7.23141 21.3244L10.031 15.6964M11.4226 16.4227L11.3827 16.4019M11.3827 16.4019L8.58308 22.0299C8.41014 22.3775 7.34936 23.766 6.98732 23.577C6.62528 23.3881 7.0984 21.6929 7.27134 21.3453L10.0709 15.7173L10.031 15.6964M11.3827 16.4019L7.40782 10.0101C6.42186 10.2317 5.11115 10.7408 4.50148 11.9664C4.41839 12.1335 4.4078 12.3297 4.47204 12.5121C4.53629 12.6944 4.6701 12.8478 4.84405 12.9386L10.0511 15.6561L10.031 15.6964M11.3827 16.4019L8.84608 9.77457M10.031 15.6964L4.82399 12.9789C4.64008 12.8829 4.49822 12.7205 4.42999 12.5269C4.36172 12.3332 4.3728 12.124 4.46154 11.9456C5.0806 10.7011 6.40877 10.1881 7.39769 9.96578L7.39787 9.96574C7.8721 9.86118 8.3566 9.79723 8.84608 9.77457M13.0914 3.7962L13.0916 3.79639C13.1784 3.91191 13.2325 4.04754 13.2475 4.18835C13.2625 4.3292 13.2379 4.46962 13.1761 4.59389L10.0431 10.892C9.98103 11.0168 9.88409 11.1201 9.76334 11.1904C9.64263 11.2608 9.50298 11.2953 9.36011 11.2907L9.35001 11.2903L9.34869 11.2896L9.34012 11.2899L9.33921 11.2899L9.33921 11.2899L9.24965 11.2907L13.0914 3.7962ZM13.0914 3.7962L13.0902 3.79457C12.9639 3.60804 12.8622 3.40731 12.7875 3.19753L12.7875 3.1974C12.7419 3.07056 12.7081 2.93826 12.689 2.80385L20.0439 6.6424M13.0914 3.7962L20.0439 6.6424M16.4422 17.3542L6.34486 12.0844C6.72943 11.7823 7.24895 11.5799 7.81041 11.4541C8.28055 11.3508 8.76281 11.296 9.24958 11.2907L16.4422 17.3542ZM16.4422 17.3542C16.4547 16.858 16.3092 16.3085 16.0786 15.7692C15.8722 15.2915 15.6146 14.8347 15.3104 14.4069L15.305 14.3998L15.3024 14.3985L15.2962 14.3903C15.2083 14.2744 15.1535 14.1381 15.1382 13.9965C15.1229 13.8548 15.1478 13.7135 15.2102 13.5886L16.4422 17.3542ZM20.0439 6.6424C19.9268 6.70596 19.8011 6.7542 19.6744 6.7918C19.4751 6.85033 19.2678 6.88368 19.0574 6.89104C18.9094 6.8805 18.7632 6.91214 18.6366 6.98258C18.5093 7.0534 18.4073 7.16035 18.3432 7.2906C18.3431 7.29065 18.3431 7.29071 18.3431 7.29077L20.0439 6.6424Z" fill="#FE7448" stroke="#FE7448" stroke-width="0.0900915"/>
<path d="M21.135 6.52635L12.672 2.23145H12.1742V4.14029L9.1872 10.344L5.73193 12.0532L16.8212 17.8389L16.1568 13.6845L18.6459 7.95798L21.135 6.52635Z" fill="#FE7448" stroke="#FE7448" stroke-width="0.900915"/>
</g>
<defs>
<clipPath id="clip0_803_9984">
<rect width="24" height="24" fill="white"/>
</clipPath>
</defs>
</svg>
