<svg width="24" height="25" viewBox="0 0 24 25" fill="none" xmlns="http://www.w3.org/2000/svg">
<g clip-path="url(#clip0_1647_460)">
<g clip-path="url(#clip1_1647_460)">
<path d="M6.10046 15.1652C6.42007 14.4388 7.30143 13.3638 7.90191 12.8214L6.28448 7.31049C5.63557 7.01025 5.03509 6.68095 4.48303 6.13857C3.82443 5.5962 3.46608 4.49209 4.35712 4.01751L15.2917 1.08288C16.27 0.986033 16.5702 2.39039 16.2312 3.18458C15.9988 3.93034 15.6501 4.55988 15.2143 5.12163L16.3281 10.7197C17.1126 10.9328 18.362 11.233 19.0206 11.6785C20.4443 12.6374 20.5218 14.5163 19.5726 14.7487L14.1586 16.2209C14.6138 18.2354 15.4467 22.0127 15.5242 22.7197C15.621 23.4848 15.4951 24.6277 15.2433 24.6858C14.9915 24.7439 14.362 23.7947 14.0908 23.0684C13.8293 22.4001 12.9382 18.6325 12.4152 16.6374L6.93339 18.0417C5.98424 18.2742 5.52903 16.3759 6.09078 15.1555L6.10046 15.1652Z" fill="#FE7448" stroke="#DC5B2F" stroke-width="0.4" stroke-miterlimit="10"/>
</g>
</g>
<defs>
<clipPath id="clip0_1647_460">
<rect width="24" height="24" fill="white" transform="translate(0 0.888672)"/>
</clipPath>
<clipPath id="clip1_1647_460">
<rect width="16.7651" height="24" fill="white" transform="translate(3.63086 0.888672)"/>
</clipPath>
</defs>
</svg>
