<?xml version="1.0" encoding="UTF-8"?>
<svg id="_레이어_1" data-name="레이어 1" xmlns="http://www.w3.org/2000/svg" viewBox="0 0 16.91 24.38">
  <defs>
    <style>
      .cls-1 {
        fill: #fe7448;
      }
    </style>
  </defs>
  <path class="cls-1" d="m2.35,14.54c.33-.75,1.24-1.86,1.86-2.42l-1.67-5.69c-.67-.31-1.29-.65-1.86-1.21C0,4.64-.37,3.5.55,3.01L11.84,0c1.01-.1,1.32,1.35.97,2.17-.24.77-.6,1.42-1.05,2l1.15,5.78c.81.22,2.1.53,2.78.99,1.47.99,1.55,2.93.57,3.17l-5.59,1.52c.47,2.08,1.33,5.98,1.41,6.71.1.79-.03,1.97-.29,2.03s-.91-.92-1.19-1.67c-.27-.69-1.19-4.58-1.73-6.64l-5.66,1.45c-.98.24-1.45-1.72-.87-2.98Z"/>
</svg>