<svg xmlns="http://www.w3.org/2000/svg" width="42" height="42" viewBox="0 0 42 42" fill="none">
  <g clip-path="url(#clip0_828_10096)">
    <rect x="0.5" y="0.5" width="41" height="41" rx="20.5" fill="#FFD66C" stroke="#FEC20C"/>
    <path fill-rule="evenodd" clip-rule="evenodd" d="M20.6473 8.97786C20.5525 8.96746 20.4576 8.9763 20.368 9.00389C20.2786 9.03171 20.1962 9.07771 20.1257 9.13926C20.0553 9.20081 19.998 9.2767 19.9572 9.3626C19.5343 10.2494 19.672 11.1387 19.8784 11.7528C19.9532 11.9729 20.0455 12.1872 20.1543 12.3933L17.3947 18.1805C16.902 18.2028 16.4142 18.2691 15.937 18.3789C14.9571 18.6087 13.6543 19.1366 13.0483 20.4074C12.9658 20.5806 12.9552 20.784 13.0191 20.9731C13.0829 21.1621 13.2159 21.3212 13.3888 21.4153L18.6039 24.2547L15.8014 30.132C15.6295 30.4924 15.1593 32.2501 15.5191 32.446C15.8789 32.6419 16.9333 31.2023 17.1052 30.8418L19.9077 24.9645L25.1228 27.8039C25.2957 27.898 25.4943 27.9195 25.675 27.8636C25.8557 27.8076 26.0035 27.6789 26.0861 27.5057C26.6921 26.2349 26.326 24.7985 25.9227 23.8155C25.7142 23.3056 25.4748 22.8676 25.2892 22.5576L25.2174 22.4395L27.977 16.6523C28.1587 16.6295 28.382 16.5882 28.6241 16.5144C29.2104 16.3319 29.964 15.9294 30.3874 15.0413C30.47 14.8681 30.4806 14.6646 30.4167 14.4756C30.3528 14.2866 30.2198 14.1275 30.047 14.0334L20.9205 9.06448C20.8349 9.01769 20.7421 8.98825 20.6473 8.97786ZM21.7667 11.1703L21.1321 10.8248C21.1324 10.8282 21.1328 10.8315 21.1331 10.8349L21.7667 11.1703Z" fill="white"/>
  </g>
  <defs>
    <clipPath id="clip0_828_10096">
      <rect width="42" height="42" fill="white"/>
    </clipPath>
  </defs>
</svg>