<svg width="42" height="42" viewBox="0 0 42 42" fill="none" xmlns="http://www.w3.org/2000/svg">
<g clip-path="url(#clip0_803_9324)">
<rect x="0.5" y="0.5" width="41" height="41" rx="20.5" fill="#FFD66C" stroke="#FEC20C"/>
<path fill-rule="evenodd" clip-rule="evenodd" d="M20.647 8.97786C20.5522 8.96746 20.4573 8.9763 20.3678 9.00389C20.2783 9.03171 20.196 9.07771 20.1255 9.13926C20.055 9.20081 19.9977 9.2767 19.957 9.3626C19.5341 10.2494 19.6717 11.1387 19.8781 11.7528C19.9529 11.9729 20.0453 12.1872 20.1541 12.3933L17.3945 18.1805C16.9017 18.2028 16.414 18.2691 15.9368 18.3789C14.9568 18.6087 13.6541 19.1366 13.0481 20.4074C12.9655 20.5806 12.955 20.784 13.0188 20.9731C13.0827 21.1621 13.2157 21.3212 13.3886 21.4153L18.6037 24.2547L15.8012 30.132C15.6293 30.4924 15.159 32.2501 15.5189 32.446C15.8787 32.6419 16.933 31.2023 17.1049 30.8418L19.9075 24.9645L25.1226 27.8039C25.2955 27.898 25.4941 27.9195 25.6748 27.8636C25.8554 27.8076 26.0033 27.6789 26.0859 27.5057C26.6919 26.2349 26.3258 24.7985 25.9224 23.8155C25.714 23.3056 25.4745 22.8676 25.289 22.5576L25.2171 22.4395L27.9767 16.6523C28.1584 16.6295 28.3817 16.5882 28.6239 16.5144C29.2102 16.3319 29.9637 15.9294 30.3872 15.0413C30.4698 14.8681 30.4803 14.6646 30.4165 14.4756C30.3526 14.2866 30.2196 14.1275 30.0467 14.0334L20.9203 9.06448C20.8347 9.01769 20.7418 8.98825 20.647 8.97786ZM21.7664 11.1703L21.1319 10.8248C21.1322 10.8282 21.1325 10.8315 21.1328 10.8349L21.7664 11.1703Z" fill="white"/>
</g>
<defs>
<clipPath id="clip0_803_9324">
<rect width="42" height="42" fill="white"/>
</clipPath>
</defs>
</svg>
