<svg width="42" height="42" viewBox="0 0 42 42" fill="none" xmlns="http://www.w3.org/2000/svg">
<g clip-path="url(#clip0_803_9339)">
<rect x="0.5" y="0.5" width="41" height="41" rx="20.5" fill="white" stroke="#FFE5A3"/>
<path d="M20.3678 9.00389C20.4573 8.9763 20.5522 8.96746 20.647 8.97786C20.7418 8.98825 20.8347 9.01769 20.9203 9.06448L30.0467 14.0334C30.2196 14.1275 30.3526 14.2866 30.4165 14.4756C30.4803 14.6646 30.4698 14.8681 30.3872 15.0413C29.9637 15.9294 29.2102 16.3319 28.6239 16.5144C28.3817 16.5882 28.1584 16.6295 27.9767 16.6523L25.2171 22.4395L25.289 22.5576C25.4745 22.8676 25.714 23.3056 25.9224 23.8155C26.3258 24.7985 26.6919 26.2349 26.0859 27.5057C26.0033 27.6789 25.8554 27.8076 25.6748 27.8636C25.4941 27.9195 25.2955 27.898 25.1226 27.8039L19.9075 24.9645L17.1049 30.8418C16.933 31.2023 15.8787 32.6419 15.5189 32.446C15.159 32.2501 15.6293 30.4924 15.8012 30.132L18.6037 24.2547L13.3886 21.4153C13.2157 21.3212 13.0827 21.1621 13.0188 20.9731C12.955 20.784 12.9655 20.5806 13.0481 20.4074C13.6541 19.1366 14.9568 18.6087 15.9368 18.3789C16.414 18.2691 16.9017 18.2028 17.3945 18.1805L20.1541 12.3933C20.0453 12.1872 19.9529 11.9729 19.8781 11.7528C19.6717 11.1387 19.5341 10.2494 19.957 9.3626C19.9977 9.2767 20.055 9.20081 20.1255 9.13926C20.196 9.07771 20.2783 9.03171 20.3678 9.00389ZM21.5489 11.9616L21.5509 11.9644C21.6323 12.0774 21.6829 12.2099 21.6969 12.347C21.7109 12.4842 21.6879 12.6207 21.6303 12.7414L18.5164 19.2717C18.4586 19.3929 18.3683 19.4933 18.2556 19.5618C18.1429 19.6303 18.0122 19.6642 17.8782 19.6596L17.8756 19.6582L17.8556 19.6588L17.7665 19.6597C17.2797 19.6652 16.7973 19.7223 16.327 19.8301C15.7393 19.9675 15.1931 20.1933 14.7989 20.538L24.9579 26.069C24.9871 25.5256 24.8371 24.9207 24.5956 24.3319C24.3891 23.8332 24.1313 23.3563 23.8269 22.9099L23.815 22.8935L23.8124 22.8921C23.7299 22.7787 23.6787 22.6456 23.6644 22.5076C23.6502 22.3697 23.6734 22.2323 23.7315 22.1111L26.8455 15.5807C26.9052 15.4542 27.0003 15.3501 27.1191 15.2811C27.238 15.2121 27.3756 15.1811 27.5153 15.192C27.7289 15.1844 27.9394 15.1492 28.1417 15.0872C28.2958 15.0395 28.4497 14.9752 28.5895 14.8851L21.1319 10.8248C21.1478 10.998 21.1863 11.1687 21.2421 11.3307C21.3178 11.5525 21.4209 11.7646 21.5489 11.9616Z" fill="#FFE5A3"/>
</g>
<defs>
<clipPath id="clip0_803_9339">
<rect width="42" height="42" fill="white"/>
</clipPath>
</defs>
</svg>
